<?xml version="1.0" encoding="UTF-8" standalone="no"?>
<svg width="297px" height="64px" viewBox="0 0 297 64" version="1.1" xmlns="http://www.w3.org/2000/svg" xmlns:xlink="http://www.w3.org/1999/xlink" xmlns:sketch="http://www.bohemiancoding.com/sketch/ns">
    <!-- Generator: Sketch 3.4 (15575) - http://www.bohemiancoding.com/sketch -->
    <title>uw logo text + Wisconsin + UNIVERSITY OF WISCON</title>
    <desc>Created with Sketch.</desc>
    <defs></defs>
    <g id="Page-1" stroke="none" stroke-width="1" fill="none" fill-rule="evenodd" sketch:type="MSPage">
        <g id="Desktop-HD" sketch:type="MSArtboardGroup" transform="translate(-949.000000, -37.000000)" fill="#FFFFFF">
            <g id="uw-logo-text-+-Wisconsin-+-UNIVERSITY-OF-WISCON" sketch:type="MSLayerGroup" transform="translate(948.000000, 37.000000)">
                <g id="bw_logo" transform="translate(0.087747, 0.000000)" sketch:type="MSShapeGroup">
                    <path d="M33.8484358,36.6459784 L33.8580453,36.6402003 C33.9464525,36.6093835 34.1886114,36.5294524 34.547045,36.5294524 C34.6786949,36.5294524 34.8122667,36.5400457 34.9458385,36.5612322 C35.548353,36.6517566 35.844325,37.060079 35.8981381,37.1419361 L35.9596387,37.8093122 L36.0490069,37.8170164 L36.2892439,36.8491766 L36.2834783,36.8356943 C35.9260056,35.9400813 34.9967688,35.8428158 34.6114286,35.8428158 C34.2135961,35.8428158 33.7533019,35.9497116 33.6677775,36.1365383 L33.3535475,37.1178605 L33.4323453,37.1621596 L33.8484358,36.6459784" id="Fill-1"></path>
                    <path d="M35.2744828,39.8374422 L35.2927408,40.5115595 L35.381148,40.5211897 L35.6848076,39.5764625 L35.6809638,39.5639432 C35.4099764,38.734779 34.5768344,38.4400934 33.8849518,38.4400934 C33.5611123,38.4400934 33.1930692,38.5113572 33.103701,38.6692933 L32.7270093,39.6255768 L32.8010024,39.672765 L33.2536089,39.1912527 L33.2641793,39.1902896 C33.3314457,39.1681401 33.5092211,39.1190258 33.7850132,39.1190258 C33.9685543,39.1190258 34.1626658,39.1411754 34.3586992,39.1864375 C34.9583308,39.3251131 35.2264353,39.7546221 35.2744828,39.8374422" id="Fill-2"></path>
                    <path d="M34.492271,31.6989206 L34.5057243,31.6941055 C34.6075848,31.6459542 35.0073392,31.4745358 35.6329164,31.5072787 C36.3103848,31.5438736 36.6649747,31.9666415 36.6976469,32.0061255 L36.8706175,32.6580932 L36.8706175,32.7505435 L36.9628686,32.7505435 L37.0685729,31.6632887 L37.0628072,31.6517324 C36.6697794,30.9198336 35.8942943,30.8090858 35.4657114,30.8090858 C34.9198929,30.8090858 34.3337146,30.9997647 34.2549168,31.2097041 L34.0713757,32.22088 L34.1569001,32.2516968 L34.492271,31.6989206" id="Fill-3"></path>
                    <path d="M34.269331,34.1844873 L34.2808624,34.1767831 C34.3673478,34.133447 34.7248204,33.9745479 35.3398272,34.0284773 C35.8962162,34.0785546 36.2171728,34.3915376 36.3641979,34.5359913 C36.3843778,34.5552518 36.3959092,34.5677711 36.4064796,34.5745123 L36.4189719,34.5870316 L36.5631142,35.2341842 L36.6524823,35.2293691 L36.7898979,34.2413058 L36.7850932,34.2278234 C36.4891211,33.6557868 35.8827629,33.3264323 35.1178482,33.3264323 C34.6441008,33.3264323 34.103087,33.471849 34.0521568,33.6885296 L33.8369044,34.6920013 L33.9233897,34.7257072 L34.269331,34.1844873" id="Fill-4"></path>
                    <path d="M6.97263939,36.5294524 C7.33299493,36.5294524 7.57515385,36.6093835 7.66260013,36.6402003 L8.09406582,37.1679378 L8.17286357,37.1265277 L7.84710216,36.122093 C7.76734347,35.9487485 7.29743985,35.8428158 6.90921682,35.8428158 C6.52675948,35.8428158 5.59560077,35.9400813 5.23812808,36.8299161 L5.23140144,36.8424354 L5.47163847,37.8122013 L5.56100664,37.8054601 L5.61674163,37.1515664 L5.62250732,37.1419361 C5.67728136,37.060079 5.97325337,36.6517566 6.57672878,36.5612322 C6.70837867,36.5400457 6.8448333,36.5294524 6.97263939,36.5294524" id="Fill-5"></path>
                    <path d="M7.73851503,39.1190258 C8.02103377,39.1190258 8.2074577,39.1748812 8.25646605,39.1902896 L8.72348683,39.6823952 L8.79940173,39.635207 L8.41021775,38.6538849 C8.32949811,38.5065421 7.9518455,38.4400934 7.63665453,38.4400934 C6.94573285,38.4400934 6.11259085,38.734779 5.84160348,39.557202 L5.83679874,39.5716474 L6.1375755,40.5163746 L6.22694367,40.5038553 L6.24231884,39.8489985 L6.25000642,39.8374422 C6.29324909,39.7546221 6.56231456,39.3251131 7.16290712,39.1864375 C7.35894053,39.1411754 7.55305204,39.1190258 7.73851503,39.1190258" id="Fill-6"></path>
                    <path d="M5.89061184,31.5072787 C6.50850146,31.4754989 6.91498251,31.6459542 7.01588206,31.6941055 L7.36278432,32.2584379 L7.4483087,32.2285842 L7.25996287,31.1846654 C7.18789177,30.9959126 6.591143,30.8090858 6.05589491,30.8090858 C5.62923395,30.8090858 4.85278789,30.9179076 4.45976012,31.6440282 L4.45399443,31.6555845 L4.55873777,32.6619453 L4.64906689,32.6677234 L4.81915471,32.0147927 C4.83356893,31.9964952 5.19104162,31.5448366 5.89061184,31.5072787" id="Fill-7"></path>
                    <path d="M7.23978296,34.1767831 L7.6001385,34.7324484 L7.68278004,34.6997055 L7.46656672,33.6866035 C7.41948026,33.469923 6.87846648,33.3264323 6.40183622,33.3264323 C5.64268723,33.3264323 5.03440708,33.6538607 4.73843507,34.2210822 L4.73266938,34.2336016 L4.86816306,35.2303321 L4.95753123,35.2389993 L5.1026344,34.5870316 L5.11512672,34.5745123 C5.1266581,34.5677711 5.13722853,34.5552518 5.15740844,34.5359913 C5.30827729,34.3886485 5.62635111,34.0785546 6.18370101,34.0284773 C6.79870779,33.976474 7.15618048,34.133447 7.23978296,34.1767831" id="Fill-8"></path>
                    <path d="M40.3079289,22.8959119 C39.7582666,17.5241602 38.2812894,13.0489845 36.0326708,9.95286014 C33.7792475,6.84903157 30.8099179,5.20418541 27.438912,5.19455516 C26.8431241,3.34265869 24.6156465,3.06049245 24.3215963,3.03063869 C24.2264625,2.72247079 23.3846719,0.297574628 20.7968387,0.26290574 L20.7968387,0.26097969 L20.699783,0.26097969 L20.699783,0.26290574 C18.1119497,0.297574628 17.2720811,2.72247079 17.1750253,3.03063869 C16.8800143,3.06049245 14.6525366,3.34265869 14.0548269,5.19455516 C10.6857428,5.20418541 7.71545227,6.84903157 5.46587278,9.95286014 C3.21533233,13.0489845 1.73739416,17.5241602 1.1867709,22.8959119 C0.365160277,30.9102034 1.80562147,39.9173733 5.13818948,47.6051993 C8.68312701,55.783205 13.7281045,60.8525669 19.7282644,62.2614721 C19.8070622,62.3876283 20.2961848,63.1301203 20.699783,63.19368 L20.7468694,63.1984951 L20.7487913,63.1984951 L20.7507132,63.1984951 L20.7968387,63.19368 C21.199476,63.1301203 21.6876376,62.3876283 21.7683572,62.2614721 C27.7675562,60.8525669 32.8154166,55.783205 36.3584322,47.6051993 C39.6910002,39.9173733 41.1314614,30.9102034 40.3079289,22.8959119 L40.3079289,22.8959119 Z M39.7361648,22.9729539 C39.7592275,23.1925235 39.7726808,23.4159453 39.7918998,23.6364779 C39.2268623,23.6509233 38.6695124,23.7693753 38.1525223,23.9802777 C37.7364318,18.8309847 36.3469008,14.6004173 34.2933547,11.7700877 C34.6863825,11.2914645 35.1879974,10.8908462 35.7338159,10.6183102 C37.8334875,13.6085018 39.2172528,17.8689231 39.7361648,22.9729539 L39.7361648,22.9729539 Z M34.5902877,42.9143061 C34.3010423,41.9300949 33.6562462,41.5583673 33.4650175,41.468806 C33.1065838,41.2973876 32.7558378,41.2087894 32.4204669,41.2087894 C32.1110416,41.2087894 31.843898,41.2867944 31.6113486,41.4004313 C32.3532005,39.3751904 33.5812922,35.265964 33.621652,30.2052693 L33.6293396,30.1840828 C33.8599672,29.5205588 34.528787,29.1083842 35.3724995,29.1083842 C36.3017363,29.1083842 37.3683887,29.6438259 37.6643607,30.8379765 L37.6653216,30.8418286 C37.3213022,35.4633841 36.3084629,40.1436841 34.7046405,44.3434347 C34.7546098,43.7473224 34.695992,43.2764034 34.5902877,42.9143061 L34.5902877,42.9143061 Z M20.7449475,57.4145688 L20.7305333,57.4145688 L20.699783,57.4145688 L20.699783,57.4155318 C20.2202699,57.4270881 19.0728978,57.6408796 18.90281,58.5258993 C18.8999272,58.5461228 18.8970443,58.5596052 18.8951224,58.5769396 L18.8797473,58.6751681 L18.8268951,58.6587967 C17.9236039,58.3284792 17.0424145,57.8806728 16.1852488,57.3307857 C16.7771928,56.8714229 18.2493653,55.6060084 18.8432312,53.950569 L18.8461141,53.9428648 C19.3179396,54.2481436 19.791687,54.5120124 20.2663954,54.7229148 L20.755518,54.9367063 L21.2446405,54.7209888 C21.7376069,54.5014191 22.2286514,54.2259941 22.716813,53.9053068 C23.2876162,55.548227 24.7299993,56.8146044 25.3517327,57.3028579 C24.4811137,57.8652644 23.586471,58.3227011 22.6687656,58.6587967 L22.6168744,58.6751681 L22.6005383,58.5740505 C22.5995774,58.5596052 22.5976555,58.5461228 22.5957336,58.5258993 C22.421802,57.6408796 21.2763518,57.4270881 20.7891511,57.4155318 L20.7891511,57.4145688 L20.7449475,57.4145688 L20.7449475,57.4145688 Z M6.81792675,44.4069944 C5.20545584,40.2062807 4.18204612,35.5240546 3.83322196,30.894795 L3.84667523,30.8379765 C4.14264725,29.6438259 5.21026058,29.1083842 6.13853645,29.1083842 C6.98320982,29.1083842 7.65106875,29.5205588 7.88361819,30.1840828 L7.88650103,30.1975651 C7.92493896,35.263075 9.15591347,39.3761534 9.8977654,41.4013943 C9.66425501,41.2867944 9.39518955,41.2087894 9.08480331,41.2087894 C8.75135432,41.2087894 8.39580353,41.2973876 8.03736989,41.468806 C7.84902406,41.5564413 7.21479831,41.9252797 6.92747483,42.8892675 C6.81504391,43.2658101 6.75450418,43.7656199 6.81792675,44.4069944 L6.81792675,44.4069944 Z M14.53434,11.4137686 C14.4910973,11.2924275 14.3459941,11.2490914 14.2124224,11.3299854 C13.829965,11.5582223 13.7799957,12.3373093 13.9510445,12.9584602 C14.0730849,13.4043406 14.2892982,13.6701354 14.5247305,13.6701354 C14.6900136,13.6701354 14.8514528,13.5892414 14.997517,13.4341944 C15.3742086,13.0374282 15.6288599,12.169743 15.5885,11.4185837 C15.49721,9.62157965 14.4824488,9.5300923 14.2787278,9.5300923 C13.5945327,9.5300923 12.8632512,10.6279404 12.8632512,12.2602673 C12.8632512,13.8444429 13.4696095,15.098301 14.274884,15.175343 C14.5958406,15.2080859 14.9427429,15.2254203 15.275231,15.2254203 C16.5580967,15.2254203 18.3022175,14.9914053 19.3275491,13.8791118 C20.0050175,13.144324 20.2894581,12.0994422 20.1664568,10.7800983 C19.9781109,8.6835936 18.8874349,6.90392398 17.2480574,6.00638497 C17.4488955,5.83689263 17.6766402,5.75022041 17.9245649,5.75022041 C19.0786635,5.75022041 20.4364832,7.58285638 20.5498751,8.15393002 C20.5729378,8.26756694 20.6305947,8.34749799 20.699783,8.37638873 L20.7487913,8.38890805 L20.7968387,8.37638873 C20.8669879,8.34749799 20.9227229,8.26756694 20.9467466,8.15393002 C21.0610994,7.58285638 22.4160363,5.75022041 23.5720568,5.75022041 C23.8199814,5.75022041 24.0467652,5.83689263 24.2476033,6.00638497 C22.6091868,6.90392398 21.5175498,8.6835936 21.328243,10.7800983 C21.2081245,12.0994422 21.4906432,13.144324 22.1700336,13.8791118 C23.1944042,14.9914053 24.939486,15.2254203 26.2213907,15.2254203 C26.5567616,15.2254203 26.8940544,15.2080859 27.2217377,15.175343 C28.0260513,15.098301 28.6333705,13.8444429 28.6333705,12.2602673 C28.6333705,10.6279404 27.901128,9.5300923 27.215972,9.5300923 C27.0141729,9.5300923 25.9994117,9.62157965 25.9071607,11.4185837 C25.8677618,12.169743 26.123374,13.0374282 26.4991047,13.4341944 C26.6461298,13.5892414 26.8056472,13.6701354 26.9709302,13.6701354 C27.2082844,13.6701354 27.4216149,13.4043406 27.5446163,12.9584602 C27.716626,12.3373093 27.6647348,11.5582223 27.2832384,11.3299854 C27.1506275,11.2490914 27.0055244,11.2924275 26.9613208,11.4137686 C26.9324923,11.4908106 26.9478675,11.6102256 27.0699079,11.7132693 C27.1813779,11.8066827 27.2303862,12.2949362 27.1246819,12.5915478 C27.0929707,12.6753309 27.0410795,12.7735594 26.9526722,12.7735594 C26.8306318,12.7735594 26.3674548,12.5655461 26.3674548,11.545703 C26.3674548,10.4343725 26.9478675,10.3120683 27.1996359,10.3120683 C27.4523652,10.3120683 28.1528964,10.7743202 28.1528964,12.2602673 C28.1528964,12.8313409 28.0346998,13.4409356 27.8540415,13.810737 C27.5100221,14.512782 26.938258,14.6880525 26.3107589,14.3028426 C25.2825444,13.5526464 24.9375641,11.8346104 25.1970201,10.610606 C25.3142557,10.0520517 25.7793546,8.75485743 27.5426944,8.75485743 L27.5907418,8.75485743 C29.9143143,8.78471119 32.0235953,9.97500971 33.7465753,12.2159682 C33.4275405,12.9873509 32.2830513,15.0357044 28.6516285,17.125468 C27.6714614,16.5052801 26.4347212,16.1036988 25.2508332,16.0247308 C25.0970815,16.0160636 24.9366031,16.0093224 24.7780467,16.0093224 C23.6623859,16.0093224 22.7158521,16.265487 21.9547812,16.4696482 C21.4810338,16.5977305 21.0716699,16.7075153 20.7814636,16.7161825 L20.7468694,16.7161825 C20.439366,16.7075153 20.0309631,16.5977305 19.5533719,16.4696482 C18.7942229,16.265487 17.84865,16.0093224 16.7301064,16.0093224 C16.5725109,16.0093224 16.4129935,16.0160636 16.2582809,16.0247308 C15.0753537,16.1036988 13.8347698,16.5062431 12.8555636,17.125468 C9.18185907,15.0260742 8.0556279,12.988314 7.74620261,12.2207833 C9.4701435,9.97693576 11.5803855,8.78471119 13.9068409,8.75485743 L13.9529664,8.75485743 C15.718228,8.75485743 16.182366,10.0520517 16.3005626,10.610606 C16.5580967,11.8346104 16.2121553,13.5526464 15.1897066,14.3018796 C14.551637,14.6938307 13.9846777,14.512782 13.6435411,13.810737 C13.46,13.4409356 13.3437253,12.8313409 13.3437253,12.2602673 C13.3437253,10.7743202 14.0432955,10.3120683 14.2989077,10.3120683 C14.5477932,10.3120683 15.1282059,10.4343725 15.1282059,11.545703 C15.1282059,12.5655461 14.6688727,12.7735594 14.5439495,12.7735594 C14.4574641,12.7735594 14.4017291,12.6753309 14.3729007,12.5915478 C14.2643136,12.2949362 14.3142829,11.8066827 14.4267138,11.7132693 C14.5497151,11.6102256 14.5641294,11.4908106 14.53434,11.4137686 L14.53434,11.4137686 Z M14.2595088,25.785949 C14.2595088,25.785949 16.8434982,36.8828825 17.4488955,39.477271 C17.9120725,36.4813012 20.2298793,21.5110824 20.2298793,21.5110824 L20.2404498,21.4417447 L20.8775584,21.4417447 L20.8910116,21.5072303 C20.8910116,21.5072303 24.0967345,36.8848085 24.6848347,39.7006927 C25.1970201,37.4751427 27.8876747,25.784986 27.8905576,25.7715036 C27.9491754,25.4103694 27.8963233,25.1330183 27.7358449,24.9702671 C27.5667181,24.7959596 27.2947698,24.7689949 27.1467837,24.7689949 C27.0737517,24.7689949 27.0247433,24.7757361 27.0170558,24.7766991 L26.7479903,24.8181092 L26.7479903,23.4766158 L30.770519,23.4766158 L30.770519,24.8421848 L30.5101021,24.8219613 C30.5024145,24.8200353 30.4860784,24.8200353 30.4582109,24.8200353 C30.2785136,24.8200353 29.8489698,24.8720386 29.7298122,25.3641442 L24.5012936,49.0526254 L23.7959577,49.0526254 L23.7834654,48.9852137 C23.7527151,48.8301667 21.0255444,34.7642282 20.5152809,32.1419119 C20.1136046,34.7738584 17.9706904,48.8272777 17.9457057,48.9823246 L17.9370572,49.0526254 L17.1461969,49.0526254 L17.1317827,48.9900288 C16.9078818,48.0241151 11.6399643,25.3853307 11.6399643,25.3785896 C11.5573228,24.9173007 11.0566688,24.7959596 10.9567302,24.7757361 L10.7597358,24.7439563 L10.7597358,23.4766158 L15.2588948,23.4766158 L15.2588948,24.772847 L14.9907903,24.7362521 C14.9648447,24.7352891 14.6688727,24.7102504 14.4699564,24.8970772 C14.3229314,25.0396049 14.2479774,25.2726569 14.2479774,25.5856399 C14.2479774,25.6472735 14.2527822,25.7137222 14.2595088,25.785949 L14.2595088,25.785949 Z M28.9120454,17.3142208 C32.3522396,15.3361681 33.5534247,13.4351574 33.956062,12.5010235 C34.1376812,12.7504469 34.3164175,13.0085375 34.4884272,13.2829995 C36.2969315,16.1547391 37.4039437,20.0607673 37.7047205,24.5821682 C36.9753609,24.966415 35.3888356,25.6617188 33.2987735,25.8109877 C32.8423231,23.0336245 31.7074434,19.2749391 28.9120454,17.3142208 L28.9120454,17.3142208 Z M12.5884201,17.319999 C9.79878775,19.2816803 8.66582994,23.0403656 8.21034054,25.8148398 C6.11739559,25.666534 4.52510459,24.9702671 3.79190119,24.5831312 C4.09363889,20.0607673 5.2006511,16.1547391 7.00723353,13.2829995 C7.17924323,13.0095005 7.35701863,12.7533359 7.53767687,12.5029495 C7.94223602,13.4380465 9.14342115,15.3409833 12.5884201,17.319999 L12.5884201,17.319999 Z M8.16517598,26.1066362 C8.00181481,27.1852239 7.93647034,28.0952822 7.91244663,28.6442063 C7.90283715,28.867628 7.89611052,29.0900867 7.89226672,29.3096563 C7.48098094,28.8454784 6.85732562,28.5844988 6.13949739,28.5844988 C5.3025116,28.5844988 4.33483687,28.9697086 3.76115085,29.7950208 C3.67466552,28.1443965 3.67466552,26.5062915 3.76787749,24.9057445 C4.55969872,25.3131039 6.12700507,25.9621825 8.16517598,26.1066362 L8.16517598,26.1066362 Z M7.45311344,42.9778657 C7.62224031,42.4703517 7.94511887,42.1024763 8.41021775,41.8829067 C8.62835297,41.7789 8.84937103,41.7259336 9.06750625,41.7259336 C9.77092025,41.7259336 10.2437067,42.2546342 10.3551767,42.6311768 C10.498358,43.1098001 10.2859884,43.6385007 9.849718,43.8831089 C9.65945027,43.9900047 9.47879203,44.0458601 9.31735275,44.0458601 C8.92624688,44.0458601 8.72252588,43.7396183 8.6850489,43.5922755 C8.62643107,43.3524823 8.70715071,43.106911 8.88396516,42.9942371 C9.02234169,42.9046758 9.18762476,42.9547531 9.25873492,43.0866875 C9.3183137,43.1926202 9.47590919,43.1964723 9.55374598,43.0992068 C9.59891054,43.0452775 9.61332476,42.9720876 9.59506675,42.8921565 C9.52780038,42.5810996 9.0924909,42.4212375 8.81958164,42.4944273 C8.34967802,42.6196205 8.01526808,43.1897312 8.12097237,43.691467 C8.16901977,43.9225929 8.47652317,44.5851539 9.23663311,44.5851539 C9.39615049,44.5851539 9.56623831,44.5543371 9.74689655,44.4955926 C10.3820832,44.2866163 10.6838209,43.9197039 10.8193146,43.5537545 C11.2699993,44.4955926 11.7350982,45.3892795 12.2155722,46.2319261 C10.9942072,47.4097053 9.10306133,47.8806244 8.41213964,48.0193 C8.34487328,47.8883286 8.2814507,47.7515791 8.21610623,47.6177187 C7.59148997,46.1019178 7.03798386,44.2249827 7.45311344,42.9778657 L7.45311344,42.9778657 Z M12.368363,46.4938689 C14.2787278,49.7835612 16.404345,52.2700909 18.5924238,53.7695204 L18.5856971,53.7887809 C18.0168159,55.4442203 16.4504705,56.7539339 15.9277147,57.1555152 C13.1198244,55.2728019 10.5954137,52.2431262 8.55435996,48.2908729 C9.3202356,48.1329369 11.1335447,47.6504615 12.368363,46.4938689 L12.368363,46.4938689 Z M22.9733862,53.7309994 C25.1374413,52.2315699 27.2399957,49.7652637 29.1311416,46.5131293 C30.381335,47.6726111 32.1888784,48.1416041 32.9403398,48.294725 C30.9088955,52.2267548 28.3998601,55.2439112 25.6083058,57.1285505 C25.0413465,56.6884482 23.513439,55.3768086 22.9733862,53.7309994 L22.9733862,53.7309994 Z M29.2839323,46.2492606 C29.7672892,45.4027619 30.2362319,44.5052229 30.6878775,43.5585696 C30.8252931,43.923556 31.1270308,44.2875793 31.7602956,44.4955926 C31.9390319,44.5543371 32.1110416,44.5851539 32.270559,44.5851539 C33.0249033,44.5851539 33.3362504,43.9225929 33.3833369,43.691467 C33.4890412,43.1897312 33.1555922,42.6196205 32.6856886,42.4944273 C32.4127793,42.4212375 31.9765089,42.5810996 31.9102035,42.8921565 C31.8929064,42.9720876 31.9082816,43.0452775 31.9524852,43.0992068 C32.029361,43.1964723 32.1869565,43.1926202 32.2465353,43.0866875 C32.3195674,42.9547531 32.4838895,42.9046758 32.6213051,42.9942371 C32.7942757,43.106911 32.8778782,43.3524823 32.8182994,43.5922755 C32.7808224,43.7396183 32.5790233,44.0458601 32.1879175,44.0458601 C32.0245563,44.0458601 31.8467809,43.9900047 31.6574741,43.8831089 C31.2221646,43.6385007 31.0078732,43.1098001 31.1500935,42.6311768 C31.2625244,42.2546342 31.7353109,41.7259336 32.437764,41.7259336 C32.6558992,41.7259336 32.8778782,41.7789 33.0960134,41.8829067 C33.5582295,42.1024763 33.8801471,42.4703517 34.047352,42.9778657 C34.4538331,44.197055 33.9349211,46.0210237 33.3276019,47.5194901 C33.2468823,47.6870564 33.1671236,47.8575118 33.0835211,48.021226 C32.4060527,47.8873656 30.5139459,47.4212616 29.2839323,46.2492606 L29.2839323,46.2492606 Z M35.3724995,28.5844988 C34.6537103,28.5844988 34.0319769,28.8454784 33.6168473,29.3173605 C33.6130035,29.0939388 33.6062769,28.8705171 33.5966674,28.6442063 C33.5736046,28.0943192 33.5082602,27.1823348 33.343938,26.1008581 C35.3830699,25.9544783 36.9417277,25.3082888 37.7297051,24.9038184 C37.8209952,26.4976243 37.8190733,28.1289881 37.7345099,29.7738342 C37.158902,28.9620044 36.1998758,28.5844988 35.3724995,28.5844988 L35.3724995,28.5844988 Z M27.5177097,5.78874139 C27.7983066,5.78874139 28.0904348,5.80414979 28.3844849,5.83496658 C31.1529764,6.12676306 33.5697608,7.65219416 35.5579624,10.3679238 C35.0121439,10.6472009 34.510529,11.0439671 34.1078918,11.5158492 C32.3378254,9.19399669 30.0968944,7.88332009 27.5724838,7.88043101 C26.0522639,7.88043101 24.9529392,8.86367922 24.6281388,10.5094884 C24.3888627,11.7363819 24.7261555,13.2021054 25.4699293,14.159352 C25.4843435,14.1795755 25.5247034,14.2489133 25.5035625,14.2912864 C25.4843435,14.3317334 25.4113115,14.3529199 25.2988806,14.3529199 C25.0029085,14.3529199 23.4807668,14.3018796 22.5659442,13.303223 C22.0066724,12.6917023 21.7741229,11.8635011 21.8721396,10.8407689 C22.0979624,8.50832311 23.7104334,5.78874139 27.5177097,5.78874139 L27.5177097,5.78874139 Z M20.7487913,0.744418083 C22.8792132,0.750196231 23.5143999,2.67335653 23.6104947,3.01426727 C23.5576426,3.01811937 23.4730792,3.02582357 23.3741015,3.04219499 C23.253983,3.0624185 23.1117627,3.09612437 23.051223,3.10960671 C22.9522453,2.97285721 22.4727322,2.36615166 21.6684186,2.36615166 C21.3743685,2.36615166 21.0678261,2.45089783 20.7603227,2.61653807 L20.7487913,2.62327925 L20.7372599,2.61653807 C20.4297565,2.45089783 20.1222532,2.36615166 19.8262811,2.36615166 C19.0267723,2.36615166 18.5443764,2.97285721 18.4463597,3.10960671 C18.383898,3.09612437 18.2426387,3.0624185 18.1215592,3.04219499 C18.0235425,3.02582357 17.9389791,3.01811937 17.8861269,3.01426727 C17.9812608,2.67143048 18.6183694,0.750196231 20.7487913,0.744418083 L20.7487913,0.744418083 Z M22.6014992,3.26946881 C21.8308189,3.55452412 21.2398358,4.0687793 20.847769,4.80164109 C20.8016435,4.88446121 20.7670493,4.915278 20.7487913,4.92201917 C20.7295724,4.915278 20.6930563,4.88446121 20.6488527,4.80164109 C20.2577468,4.07359443 19.6686857,3.55645017 18.8951224,3.26946881 C19.1286328,3.09034622 19.3861669,2.99885887 19.6571543,2.99885887 C20.1962462,2.99885887 20.6027272,3.35517801 20.6498137,3.50252079 C20.6603841,3.53526363 20.6728764,3.56896949 20.699783,3.59111906 L20.7487913,3.6123056 L20.7968387,3.59111906 C20.8256672,3.56896949 20.8362376,3.53526363 20.847769,3.50252079 C20.8929335,3.35517801 21.2994146,2.99885887 21.8394674,2.99885887 C22.1075719,2.99885887 22.3670279,3.09034622 22.6014992,3.26946881 L22.6014992,3.26946881 Z M17.6968202,3.471704 C19.0373428,3.471704 20.1011123,4.2363456 20.6104148,5.56628269 C20.6373213,5.65006584 20.6632669,5.71458849 20.699783,5.74251621 L20.7449475,5.76081368 L20.7487913,5.76081368 L20.7507132,5.76081368 L20.7968387,5.74347923 C20.8343157,5.71458849 20.8583394,5.65102886 20.883324,5.56917176 C21.3974313,4.2363456 22.458318,3.471704 23.7998015,3.471704 C25.1316756,3.471704 26.3693767,4.22960442 26.7066695,5.24174337 C26.567332,5.26100386 26.1906404,5.3168593 25.9177311,5.36982565 C25.624642,5.42471806 25.272935,5.5431701 25.1662697,5.58361713 C24.9269936,5.28219041 24.3869408,4.96824436 23.7392618,4.96824436 C22.9858785,4.96824436 21.866374,5.38041893 20.8074091,7.34113719 C20.8016435,7.35461953 20.7872292,7.37580608 20.7564789,7.38543632 L20.7487913,7.3883254 L20.7401428,7.38543632 C20.7084315,7.37580608 20.6949782,7.35461953 20.6853687,7.33921114 C19.6302477,5.38041893 18.5107432,4.96824436 17.755438,4.96824436 C17.1087199,4.96824436 16.569628,5.28219041 16.329391,5.58361713 C16.2227258,5.5431701 15.8700578,5.42471806 15.5779296,5.36982565 C15.3050203,5.3168593 14.9273677,5.26100386 14.7889912,5.24174337 C15.1272449,4.22960442 16.3639851,3.471704 17.6968202,3.471704 L17.6968202,3.471704 Z M13.1130977,5.83496658 C13.405226,5.80414979 13.6973542,5.78874139 13.977951,5.78874139 C17.7852274,5.78874139 19.3976983,8.50832311 19.6215992,10.8407689 C19.7215378,11.8635011 19.4880274,12.6917023 18.9306775,13.303223 C18.0158549,14.3018796 16.495635,14.3529199 16.199663,14.3529199 C16.0853102,14.3529199 16.0122781,14.3317334 15.9911373,14.2912864 C15.9719183,14.2489133 16.0103562,14.1795755 16.0257314,14.159352 C16.7685443,13.2021054 17.106798,11.7363819 16.8656001,10.5094884 C16.5427215,8.86367922 15.4433969,7.88043101 13.922216,7.88043101 C11.3958835,7.88332009 9.15591347,9.19495971 7.38488613,11.5187383 C6.98320982,11.0430041 6.48543871,10.6443119 5.93865924,10.3650347 C7.93070465,7.65026811 10.3426844,6.12580003 13.1130977,5.83496658 L13.1130977,5.83496658 Z M1.76141786,22.9729539 C2.27840794,17.8689231 3.66313415,13.6085018 5.76088384,10.6183102 C6.30862426,10.8908462 6.80639537,11.2905014 7.20134504,11.7720138 C5.14779896,14.6033064 3.76115085,18.8329108 3.34506033,23.9812408 C2.83191404,23.7741904 2.26495467,23.6557384 1.70568287,23.6374409 C1.72394089,23.4159453 1.73835511,23.1934866 1.76141786,22.9729539 L1.76141786,22.9729539 Z M5.57349896,47.163171 C2.47444135,40.0290841 1.07433997,31.6247677 1.67973727,23.9407937 C2.24477476,23.9562021 2.81557792,24.0804323 3.32199757,24.2961498 C3.30950525,24.4666052 3.29605197,24.6360975 3.28548154,24.8075159 C2.87131291,31.7807777 4.18877276,39.4560844 6.90056829,45.8582726 C7.19173556,46.5458722 7.49923895,47.2045811 7.81635182,47.8478816 C7.2484315,47.9634445 6.68627686,48.1964965 6.19042764,48.5162207 C5.97998001,48.0741924 5.77337617,47.6244598 5.57349896,47.163171 L5.57349896,47.163171 Z M6.32496038,48.7916458 C6.81984865,48.4671064 7.38584708,48.2321284 7.95280645,48.1281217 C9.97175841,52.1448977 12.4827158,55.2708759 15.2915671,57.2855235 C14.7995616,57.7082913 14.385393,58.2466221 14.1038352,58.8340672 C11.1037553,56.6065911 8.47364032,53.2234854 6.32496038,48.7916458 L6.32496038,48.7916458 Z M14.3527208,59.021857 C14.62563,58.4276708 15.0436425,57.8777837 15.5481402,57.461757 C16.6051831,58.1898037 17.7016249,58.7666555 18.8307389,59.1711258 C18.8307389,59.3030602 18.8413093,59.800944 18.9412479,60.309421 C19.0306161,60.7658947 19.2189619,61.2348877 19.3044863,61.4255666 C17.5651703,60.9450173 15.9104176,60.1370396 14.3527208,59.021857 L14.3527208,59.021857 Z M21.0149739,62.3982216 C20.9736532,62.4454098 20.866027,62.5619358 20.7487913,62.5686769 C20.6305947,62.5619358 20.5248904,62.4454098 20.4806868,62.3982216 C19.9291026,61.7067698 19.0536789,60.2978647 19.3784793,58.6202757 C19.4716913,58.1368373 20.2510202,57.9076374 20.7487913,57.9057114 C21.2446405,57.9076374 22.0239694,58.1368373 22.1162205,58.6202757 C22.4419819,60.2978647 21.5646363,61.7067698 21.0149739,62.3982216 L21.0149739,62.3982216 Z M22.1930963,61.4255666 C22.2766988,61.2348877 22.4679275,60.7658947 22.5553737,60.309421 C22.6533904,59.800944 22.6639609,59.3030602 22.6649218,59.1711258 C23.8026844,58.7637664 24.9077747,58.1801734 25.9734661,57.4444226 C26.4798858,57.8565971 26.900781,58.4055212 27.1775341,58.9987444 C25.6102277,60.1274093 23.9439437,60.9411652 22.1930963,61.4255666 L22.1930963,61.4255666 Z M27.4235368,58.8099916 C27.1390962,58.2235095 26.7230056,57.6871048 26.2271564,57.267226 C29.0206325,55.2573935 31.5171757,52.1487498 33.529401,48.1570125 C34.1021261,48.2812427 34.6546712,48.5239249 35.1361062,48.8629096 C32.9999186,53.2427459 30.3938274,56.5940718 27.4235368,58.8099916 L27.4235368,58.8099916 Z M35.9231227,47.163171 C35.7117141,47.6485355 35.4955008,48.1242697 35.2735218,48.5884475 C34.789204,48.254278 34.2385807,48.0115958 33.6648947,47.8786984 C33.9877733,47.2267306 34.3000814,46.5564655 34.5950924,45.8582726 C37.3088099,39.4560844 38.6262697,31.7807777 38.2111401,24.8075159 C38.2015307,24.6351345 38.1871164,24.4666052 38.1746241,24.2961498 C38.6906532,24.0736911 39.2518469,23.953313 39.8178454,23.9407937 C40.4213208,31.6247677 39.0231413,40.0290841 35.9231227,47.163171 L35.9231227,47.163171 Z" id="Fill-9"></path>
                </g>
                <path d="M52.0056443,55.3560172 L50.9071383,55.3560172 L50.9071383,54.7514624 C50.5385103,55.2483592 50.0248963,55.4968039 49.3662809,55.4968039 C48.9583325,55.4968039 48.6019974,55.3946655 48.2972649,55.1903857 C47.9581271,54.9640216 47.7344962,54.6465645 47.6263653,54.2380049 C47.5772149,54.0392462 47.55264,53.7135076 47.55264,53.2607793 L47.55264,50.7183366 C47.55264,50.3981141 47.5428101,50.1883164 47.5231499,50.088937 C47.4789146,49.8625729 47.3732428,49.6997036 47.2061314,49.6003243 L48.6806362,49.6003243 C48.5135248,49.7052247 48.407853,49.868094 48.3636176,50.088937 C48.3439575,50.1938375 48.3341275,50.4036352 48.3341275,50.7183366 L48.3341275,53.2607793 C48.3341275,53.7631972 48.4250544,54.1358643 48.6069109,54.3787916 C48.8477479,54.699014 49.1770507,54.8591228 49.5948291,54.8591228 C50.0912482,54.8591228 50.4697006,54.6520856 50.7301977,54.2380049 C50.8284985,54.0723726 50.8776482,53.8460119 50.8776482,53.5589159 L50.8776482,50.7183366 C50.8776482,50.4036352 50.8678183,50.1938375 50.8481581,50.088937 C50.8039227,49.868094 50.698251,49.7052247 50.5311396,49.6003243 L52.0056443,49.6003243 C51.8385329,49.7052247 51.7328612,49.868094 51.6886258,50.088937 C51.6689656,50.1938375 51.6591357,50.4036352 51.6591357,50.7183366 L51.6591357,54.2380049 C51.6591357,54.5527062 51.6689656,54.762504 51.6886258,54.8674044 C51.7328612,55.0882474 51.8385329,55.2511167 52.0056443,55.3560172 L52.0056443,55.3560172 Z M58.0674971,49.6003243 C57.9003857,49.7217879 57.789799,49.850151 57.7357336,49.9854174 C57.6816681,50.1206837 57.6546358,50.3346222 57.6546358,50.6272393 L57.6546358,55.6375907 C57.2761777,55.4995638 56.9198426,55.1931486 56.5856199,54.7183361 L53.8577861,50.8342786 L53.8577861,54.3291022 C53.8577861,54.6161981 53.8860472,54.8301366 53.9425701,54.9709241 C53.9990931,55.1117115 54.1059936,55.2400746 54.2632749,55.3560172 L52.8772405,55.3560172 C53.0443518,55.2345535 53.1549386,55.1061904 53.209004,54.9709241 C53.2630695,54.8356577 53.2901018,54.6217192 53.2901018,54.3291022 L53.2901018,50.6272393 C53.2901018,50.3401433 53.2618407,50.1262048 53.2053178,49.9854174 C53.1487948,49.8446299 53.0418943,49.7162668 52.884613,49.6003243 L54.0199816,49.6003243 C54.0298117,49.6334507 54.0912488,49.7411101 54.2042947,49.9233056 L57.0869515,54.0475287 L57.0869515,50.6272393 C57.0869515,50.3401433 57.0586904,50.1275851 57.0021674,49.9895582 C56.9456445,49.8515313 56.8362865,49.7217879 56.6740901,49.6003243 L58.0674971,49.6003243 Z M60.3841079,55.3560172 L58.9096032,55.3560172 C59.0767145,55.2566378 59.1823863,55.0937685 59.2266217,54.8674044 C59.2462818,54.768025 59.2561118,54.5582273 59.2561118,54.2380049 L59.2561118,50.7183366 C59.2561118,50.3981141 59.2462818,50.1883164 59.2266217,50.088937 C59.1823863,49.8625729 59.0767145,49.6997036 58.9096032,49.6003243 L60.3841079,49.6003243 C60.2169965,49.6997036 60.1113247,49.8625729 60.0670894,50.088937 C60.0474292,50.1883164 60.0375993,50.3981141 60.0375993,50.7183366 L60.0375993,54.2380049 C60.0375993,54.5582273 60.0474292,54.768025 60.0670894,54.8674044 C60.1113247,55.0937685 60.2169965,55.2566378 60.3841079,55.3560172 L60.3841079,55.3560172 Z M65.7087083,49.6003243 L63.6296567,55.6127459 C63.2757738,55.3532554 63.0472278,55.1544996 62.944012,55.0164727 C62.8555412,54.895009 62.7498694,54.6493248 62.6269934,54.2794128 L61.5727226,51.0827257 C61.381036,50.4974917 61.2569331,50.1413876 61.2004101,50.0144029 C61.1438871,49.8874181 61.0419016,49.7493933 60.8944504,49.6003243 L62.029819,49.6003243 C62.024904,49.6279296 62.0224465,49.6610556 62.0224465,49.6997031 C62.0224465,49.8156457 62.0814261,50.0530484 62.1993871,50.4119184 L63.4748337,54.3208206 L64.5733397,51.0827257 C64.730621,50.6134343 64.8092604,50.2849352 64.8092604,50.0972186 C64.8092604,49.8542913 64.7158761,49.6886615 64.5291045,49.6003243 L65.7087083,49.6003243 Z M69.9126852,54.2131602 L69.5514315,55.3560172 L66.3075211,55.3560172 C66.4746325,55.2566378 66.5803043,55.0937685 66.6245396,54.8674044 C66.6441998,54.762504 66.6540297,54.5499457 66.6540297,54.2297233 L66.6540297,50.7183366 C66.6540297,50.4036352 66.6441998,50.1938375 66.6245396,50.088937 C66.5803043,49.8625729 66.4746325,49.6997036 66.3075211,49.6003243 L68.8952769,49.6003243 C69.0083228,49.6003243 69.1066222,49.5837613 69.1901778,49.5506348 L69.1901778,50.5692682 C69.0525567,50.4201992 68.9075652,50.3235818 68.7551989,50.2794132 C68.642153,50.2407657 68.4701292,50.2214422 68.2391223,50.2214422 C67.9147296,50.2214422 67.646864,50.2407657 67.4355172,50.2794132 L67.4355172,51.910883 L68.4750431,51.910883 C68.5782589,51.910883 68.6667283,51.8915595 68.7404539,51.852912 L68.7404539,52.7804481 C68.632323,52.6203369 68.4283519,52.5402825 68.1285344,52.5402825 L67.4355172,52.5402825 L67.4355172,54.6189572 C67.7648249,54.6796891 68.0842977,54.7100545 68.3939453,54.7100545 C69.0132404,54.7100545 69.5194819,54.5444247 69.9126852,54.2131602 L69.9126852,54.2131602 Z M75.1266977,55.3560172 C74.7433246,55.3891436 74.5049487,55.4057066 74.4115629,55.4057066 C74.1903861,55.4057066 73.9999312,55.3477362 73.8401924,55.2317936 C73.6804536,55.115851 73.4703387,54.8839693 73.2098416,54.5361415 C72.7134225,53.8736124 72.2587881,53.1476018 71.8459247,52.3580879 C72.7109718,52.1924556 73.1434889,51.7756207 73.1434889,51.1075705 C73.1434889,50.8204745 73.0562482,50.5872125 72.8817643,50.4077776 C72.7072804,50.2283426 72.4799631,50.1386265 72.1998058,50.1386265 C72.0474396,50.1386265 71.8655858,50.1607104 71.6542391,50.2048791 L71.6542391,54.2380049 C71.6542391,54.5582273 71.664069,54.768025 71.6837292,54.8674044 C71.7279646,55.0937685 71.8336363,55.2566378 72.0007477,55.3560172 L70.526243,55.3560172 C70.6933544,55.2566378 70.7990261,55.0937685 70.8432615,54.8674044 C70.8629217,54.768025 70.8727516,54.5582273 70.8727516,54.2380049 L70.8727516,50.7183366 C70.8727516,50.3981141 70.8629217,50.1883164 70.8432615,50.088937 C70.7990261,49.8625729 70.6933544,49.6997036 70.526243,49.6003243 L71.6542391,49.6003243 C71.7328797,49.6003243 71.8483815,49.5975638 72.0007477,49.5920427 C72.153114,49.5865216 72.2686157,49.5837611 72.3472563,49.5837611 C72.8436754,49.5837611 73.2270428,49.6969415 73.49737,49.9233056 C73.8414228,50.2104015 74.0134467,50.5830686 74.0134467,51.0413179 C74.0134467,51.3781035 73.8954875,51.6858989 73.6595655,51.9647132 C73.4236436,52.2435276 73.1213731,52.4353821 72.7527451,52.5402825 C73.3327199,53.4181336 73.7959555,54.0613293 74.1424658,54.4698889 C74.4889762,54.8784485 74.8170502,55.1738217 75.1266977,55.3560172 L75.1266977,55.3560172 Z M78.9620484,53.674858 C78.9620484,54.116544 78.802312,54.511295 78.4828344,54.8591228 C78.0847161,55.2897668 77.5416123,55.5050855 76.8535066,55.5050855 C76.3865778,55.5050855 75.9294859,55.4139891 75.4822172,55.2317936 L75.2462965,54.1469076 C75.7722058,54.610678 76.3423419,54.8425597 76.956722,54.8425597 C77.2860297,54.8425597 77.5624965,54.7569843 77.7861309,54.5858309 C78.0097652,54.4146776 78.1215807,54.2021193 78.1215807,53.9481498 C78.1215807,53.7052225 78.0355688,53.4981853 77.8635424,53.3270319 C77.7160912,53.1834839 77.3831022,52.9792072 76.8645654,52.7141955 C76.3460287,52.4491839 75.9884648,52.2173022 75.7918632,52.0185434 C75.521536,51.7424896 75.3863744,51.4057091 75.3863744,51.0081916 C75.3863744,50.5389001 75.5620845,50.1634726 75.9135099,49.8818977 C76.2649352,49.6003228 76.7355433,49.4595375 77.3253481,49.4595375 C77.7136363,49.4595375 78.1092911,49.5230289 78.5123244,49.6500137 L78.5123244,50.6438024 C78.1633566,50.2628482 77.7529569,50.0723739 77.281113,50.0723739 C76.9763805,50.0723739 76.7294034,50.1482875 76.5401744,50.3001171 C76.3509453,50.4519467 76.2563322,50.6493222 76.2563322,50.8922496 C76.2563322,51.1075715 76.3312855,51.2883841 76.4811942,51.4346926 C76.6311029,51.5810011 76.9395171,51.7756161 77.4064459,52.0185434 C77.9618455,52.3056394 78.3402979,52.5402816 78.5418145,52.7224771 C78.8219718,52.9709255 78.9620484,53.2883826 78.9620484,53.674858 L78.9620484,53.674858 Z M81.2712866,55.3560172 L79.7967819,55.3560172 C79.9638933,55.2566378 80.0695651,55.0937685 80.1138004,54.8674044 C80.1334606,54.768025 80.1432905,54.5582273 80.1432905,54.2380049 L80.1432905,50.7183366 C80.1432905,50.3981141 80.1334606,50.1883164 80.1138004,50.088937 C80.0695651,49.8625729 79.9638933,49.6997036 79.7967819,49.6003243 L81.2712866,49.6003243 C81.1041753,49.6997036 80.9985035,49.8625729 80.9542681,50.088937 C80.934608,50.1883164 80.924778,50.3981141 80.924778,50.7183366 L80.924778,54.2380049 C80.924778,54.5582273 80.934608,54.768025 80.9542681,54.8674044 C80.9985035,55.0937685 81.1041753,55.2566378 81.2712866,55.3560172 L81.2712866,55.3560172 Z M85.8365171,49.5423532 L85.5858513,50.5858314 C85.5170408,50.4367623 85.4138265,50.340145 85.2762053,50.2959763 C85.1926497,50.268371 85.0525731,50.2545685 84.8559715,50.2545685 C84.8166512,50.2545685 84.7515279,50.2587092 84.6605996,50.2669908 C84.5696714,50.2752725 84.4529409,50.2794132 84.3104047,50.2794132 L84.1850718,50.2794132 L84.1850718,54.3291022 C84.1850718,54.6161981 84.2121042,54.8273761 84.2661696,54.9626425 C84.320235,55.0979089 84.4308218,55.2290324 84.5979332,55.3560172 L83.0570757,55.3560172 C83.2241871,55.2566378 83.3298589,55.0937685 83.3740942,54.8674044 C83.3937544,54.762504 83.4035843,54.5527062 83.4035843,54.2380049 L83.4035843,50.2794132 C83.2512181,50.26285 83.042332,50.2545685 82.7769198,50.2545685 C82.5409979,50.2545685 82.3640591,50.2711315 82.2460981,50.3042579 C82.0937319,50.3484265 81.9339955,50.4422834 81.7668841,50.5858314 L82.0544125,49.5423532 C82.1576284,49.5810008 82.2903325,49.6003243 82.4525288,49.6003243 L85.3794207,49.6003243 C85.4433162,49.6003243 85.5096683,49.5975638 85.5784788,49.5920427 C85.6472894,49.5865216 85.6816941,49.5837611 85.6816941,49.5837611 C85.7062693,49.57824 85.7578765,49.5644376 85.8365171,49.5423532 L85.8365171,49.5423532 Z M90.9546869,49.6003243 L89.0452033,52.8384191 L89.0452033,54.3291022 C89.0452033,54.5941138 89.0648632,54.7845881 89.1041835,54.9005307 C89.1533339,55.0385576 89.2639206,55.1903849 89.435947,55.3560172 L87.9319522,55.3560172 C88.0941485,55.2290324 88.1949054,55.0634026 88.2342257,54.8591228 C88.2538858,54.7652645 88.2637158,54.5582273 88.2637158,54.2380049 L88.2637158,52.8384191 L86.9219165,50.4119184 C86.7892104,50.1745121 86.6810811,50.0075021 86.5975254,49.9108832 C86.5139697,49.8142644 86.3910956,49.7107458 86.2288992,49.6003243 L87.1136021,49.567198 C87.2315631,49.567198 87.31266,49.5865214 87.3568954,49.625169 C87.4011307,49.6638165 87.4773127,49.7825179 87.5854436,49.9812766 L88.7576749,52.1344855 L89.7382205,50.4616078 C89.8365213,50.2959755 89.885671,50.1551902 89.885671,50.0392476 C89.885671,49.8625732 89.7922866,49.7162668 89.6055151,49.6003243 L90.9546869,49.6003243 Z M99.2446802,52.4409036 C99.2446802,53.2966704 98.9657558,54.0199205 98.4078988,54.6106757 C97.8500417,55.2014308 97.1705476,55.4968039 96.369396,55.4968039 C95.5780745,55.4968039 94.9071815,55.2069518 94.356697,54.6272388 C93.8062125,54.0475258 93.5309744,53.3408387 93.5309744,52.5071562 C93.5309744,51.6403473 93.8123562,50.9143367 94.3751283,50.3291026 C94.9379005,49.7438686 95.6370545,49.4512559 96.4726113,49.4512559 C97.2688478,49.4512559 97.9299109,49.7383476 98.4558202,50.3125395 C98.7015722,50.5775511 98.8944846,50.9005292 99.0345633,51.2814835 C99.1746419,51.6624377 99.2446802,52.0489072 99.2446802,52.4409036 L99.2446802,52.4409036 Z M98.3599774,52.5816904 C98.3599774,51.902598 98.1830386,51.3228937 97.8291557,50.8425601 C97.4556126,50.3346211 96.9665734,50.0806555 96.3620235,50.0806555 C95.7918788,50.0806555 95.3237282,50.2918335 94.9575577,50.7141958 C94.5913872,51.1365581 94.4083047,51.6872771 94.4083047,52.3663695 C94.4083047,53.0841094 94.6171908,53.7024606 95.0349692,54.2214417 C95.3839371,54.6576067 95.8385715,54.875686 96.3988861,54.875686 C96.9788608,54.875686 97.4506976,54.6631277 97.8144106,54.2380049 C98.1781236,53.812882 98.3599774,53.2607827 98.3599774,52.5816904 L98.3599774,52.5816904 Z M102.976816,50.5609867 C102.839194,50.4174387 102.69666,50.3208213 102.549209,50.2711316 C102.431248,50.2380052 102.259224,50.2214422 102.033132,50.2214422 C101.713655,50.2214422 101.443332,50.2407657 101.222155,50.2794132 L101.222155,51.910883 L102.261681,51.910883 C102.364897,51.910883 102.453366,51.8915595 102.527092,51.852912 L102.527092,52.7804481 C102.423876,52.6203369 102.219905,52.5402825 101.915172,52.5402825 L101.222155,52.5402825 L101.222155,54.2380049 C101.222155,54.5582273 101.231985,54.768025 101.251645,54.8674044 C101.29588,55.0937685 101.401552,55.2566378 101.568664,55.3560172 L100.094159,55.3560172 C100.26127,55.2566378 100.366942,55.0937685 100.411177,54.8674044 C100.430837,54.768025 100.440667,54.5582273 100.440667,54.2380049 L100.440667,50.7183366 C100.440667,50.3981141 100.430837,50.1883164 100.411177,50.088937 C100.366942,49.8625729 100.26127,49.6997036 100.094159,49.6003243 L102.681915,49.6003243 C102.794961,49.6003243 102.89326,49.5837613 102.976816,49.5506348 L102.976816,50.5609867 Z M112.719196,49.6003243 L111.075123,55.6044644 C111.035803,55.5713379 110.942419,55.499565 110.794967,55.3891435 C110.55413,55.206948 110.396851,55.0620219 110.323126,54.9543609 C110.2494,54.8466999 110.165846,54.6272405 110.07246,54.2959759 L109.19513,51.1903862 L107.986036,55.6044644 C107.89265,55.5271693 107.772233,55.4333124 107.624782,55.3228909 C107.41835,55.1683008 107.280731,55.0357969 107.211921,54.9253754 C107.14311,54.8149539 107.064471,54.6051562 106.976,54.2959759 L105.995454,50.8674049 C105.877493,50.4533242 105.780423,50.1703733 105.70424,50.0185437 C105.628057,49.8667141 105.518699,49.727309 105.376162,49.6003243 L106.511531,49.6003243 C106.501701,49.6665772 106.496786,49.7024636 106.496786,49.7079847 C106.496786,49.7963219 106.523818,49.9343467 106.577884,50.1220633 L107.786978,54.3456653 L108.752778,50.8674049 C108.841249,50.5471824 108.885484,50.3014983 108.885484,50.1303449 C108.885484,49.9315862 108.782269,49.7549144 108.575838,49.6003243 L109.652226,49.6003243 C109.637481,49.6720982 109.630109,49.7273082 109.630109,49.7659557 C109.630109,49.9095037 109.666971,50.1110199 109.740696,50.3705105 L110.868693,54.3208206 L111.812376,50.9585022 C111.915591,50.5885901 111.967199,50.3346244 111.967199,50.1965975 C111.967199,49.9095015 111.827122,49.7107458 111.546965,49.6003243 L112.719196,49.6003243 Z M114.829376,55.3560172 L113.354871,55.3560172 C113.521983,55.2566378 113.627655,55.0937685 113.67189,54.8674044 C113.69155,54.768025 113.70138,54.5582273 113.70138,54.2380049 L113.70138,50.7183366 C113.70138,50.3981141 113.69155,50.1883164 113.67189,50.088937 C113.627655,49.8625729 113.521983,49.6997036 113.354871,49.6003243 L114.829376,49.6003243 C114.662265,49.6997036 114.556593,49.8625729 114.512358,50.088937 C114.492697,50.1883164 114.482867,50.3981141 114.482867,50.7183366 L114.482867,54.2380049 C114.482867,54.5582273 114.492697,54.768025 114.512358,54.8674044 C114.556593,55.0937685 114.662265,55.2566378 114.829376,55.3560172 L114.829376,55.3560172 Z M119.365116,53.674858 C119.365116,54.116544 119.20538,54.511295 118.885902,54.8591228 C118.487784,55.2897668 117.94468,55.5050855 117.256575,55.5050855 C116.789646,55.5050855 116.332554,55.4139891 115.885285,55.2317936 L115.649365,54.1469076 C116.175274,54.610678 116.74541,54.8425597 117.35979,54.8425597 C117.689098,54.8425597 117.965565,54.7569843 118.189199,54.5858309 C118.412833,54.4146776 118.524649,54.2021193 118.524649,53.9481498 C118.524649,53.7052225 118.438637,53.4981853 118.26661,53.3270319 C118.119159,53.1834839 117.78617,52.9792072 117.267634,52.7141955 C116.749097,52.4491839 116.391533,52.2173022 116.194931,52.0185434 C115.924604,51.7424896 115.789443,51.4057091 115.789443,51.0081916 C115.789443,50.5389001 115.965153,50.1634726 116.316578,49.8818977 C116.668003,49.6003228 117.138611,49.4595375 117.728416,49.4595375 C118.116704,49.4595375 118.512359,49.5230289 118.915393,49.6500137 L118.915393,50.6438024 C118.566425,50.2628482 118.156025,50.0723739 117.684181,50.0723739 C117.379449,50.0723739 117.132472,50.1482875 116.943242,50.3001171 C116.754013,50.4519467 116.6594,50.6493222 116.6594,50.8922496 C116.6594,51.1075715 116.734354,51.2883841 116.884262,51.4346926 C117.034171,51.5810011 117.342585,51.7756161 117.809514,52.0185434 C118.364914,52.3056394 118.743366,52.5402816 118.944883,52.7224771 C119.22504,52.9709255 119.365116,53.2883826 119.365116,53.674858 L119.365116,53.674858 Z M124.660227,54.2214417 L124.269483,55.2400752 C123.891025,55.4112285 123.487998,55.4968039 123.060389,55.4968039 C122.170767,55.4968039 121.456868,55.2221345 120.918671,54.6727874 C120.380474,54.1234404 120.11138,53.3960495 120.11138,52.4905931 C120.11138,51.6182631 120.371873,50.895013 120.892867,50.3208211 C121.413862,49.7466292 122.072467,49.4595375 122.868704,49.4595375 C123.256992,49.4595375 123.723914,49.5340709 124.269483,49.68314 L124.269483,50.6852103 C123.773064,50.3649879 123.301227,50.2048791 122.853959,50.2048791 C122.308389,50.2048791 121.862356,50.4050151 121.515845,50.8052931 C121.169335,51.2055711 120.996083,51.7176432 120.996083,52.3415248 C120.996083,53.0261382 121.185309,53.6058425 121.563767,54.080655 C121.942225,54.5554675 122.406689,54.7928703 122.957174,54.7928703 C123.453593,54.7928703 124.021272,54.602396 124.660227,54.2214417 L124.660227,54.2214417 Z M130.803177,52.4409036 C130.803177,53.2966704 130.524253,54.0199205 129.966396,54.6106757 C129.408539,55.2014308 128.729045,55.4968039 127.927893,55.4968039 C127.136572,55.4968039 126.465679,55.2069518 125.915194,54.6272388 C125.36471,54.0475258 125.089472,53.3408387 125.089472,52.5071562 C125.089472,51.6403473 125.370853,50.9143367 125.933626,50.3291026 C126.496398,49.7438686 127.195552,49.4512559 128.031108,49.4512559 C128.827345,49.4512559 129.488408,49.7383476 130.014317,50.3125395 C130.260069,50.5775511 130.452982,50.9005292 130.59306,51.2814835 C130.733139,51.6624377 130.803177,52.0489072 130.803177,52.4409036 L130.803177,52.4409036 Z M129.918475,52.5816904 C129.918475,51.902598 129.741536,51.3228937 129.387653,50.8425601 C129.01411,50.3346211 128.525071,50.0806555 127.920521,50.0806555 C127.350376,50.0806555 126.882225,50.2918335 126.516055,50.7141958 C126.149884,51.1365581 125.966802,51.6872771 125.966802,52.3663695 C125.966802,53.0841094 126.175688,53.7024606 126.593466,54.2214417 C126.942434,54.6576067 127.397069,54.875686 127.957383,54.875686 C128.537358,54.875686 129.009195,54.6631277 129.372908,54.2380049 C129.736621,53.812882 129.918475,53.2607827 129.918475,52.5816904 L129.918475,52.5816904 Z M136.783932,49.6003243 C136.616821,49.7217879 136.506234,49.850151 136.452169,49.9854174 C136.398103,50.1206837 136.371071,50.3346222 136.371071,50.6272393 L136.371071,55.6375907 C135.992613,55.4995638 135.636278,55.1931486 135.302055,54.7183361 L132.574221,50.8342786 L132.574221,54.3291022 C132.574221,54.6161981 132.602482,54.8301366 132.659005,54.9709241 C132.715528,55.1117115 132.822429,55.2400746 132.97971,55.3560172 L131.593676,55.3560172 C131.760787,55.2345535 131.871374,55.1061904 131.925439,54.9709241 C131.979505,54.8356577 132.006537,54.6217192 132.006537,54.3291022 L132.006537,50.6272393 C132.006537,50.3401433 131.978276,50.1262048 131.921753,49.9854174 C131.86523,49.8446299 131.75833,49.7162668 131.601048,49.6003243 L132.736417,49.6003243 C132.746247,49.6334507 132.807684,49.7411101 132.92073,49.9233056 L135.803387,54.0475287 L135.803387,50.6272393 C135.803387,50.3401433 135.775126,50.1275851 135.718603,49.9895582 C135.66208,49.8515313 135.552722,49.7217879 135.390525,49.6003243 L136.783932,49.6003243 Z M141.231203,53.674858 C141.231203,54.116544 141.071466,54.511295 140.751989,54.8591228 C140.35387,55.2897668 139.810766,55.5050855 139.122661,55.5050855 C138.655732,55.5050855 138.19864,55.4139891 137.751371,55.2317936 L137.515451,54.1469076 C138.04136,54.610678 138.611496,54.8425597 139.225876,54.8425597 C139.555184,54.8425597 139.831651,54.7569843 140.055285,54.5858309 C140.278919,54.4146776 140.390735,54.2021193 140.390735,53.9481498 C140.390735,53.7052225 140.304723,53.4981853 140.132697,53.3270319 C139.985245,53.1834839 139.652256,52.9792072 139.13372,52.7141955 C138.615183,52.4491839 138.257619,52.2173022 138.061017,52.0185434 C137.79069,51.7424896 137.655529,51.4057091 137.655529,51.0081916 C137.655529,50.5389001 137.831239,50.1634726 138.182664,49.8818977 C138.534089,49.6003228 139.004697,49.4595375 139.594502,49.4595375 C139.98279,49.4595375 140.378445,49.5230289 140.781479,49.6500137 L140.781479,50.6438024 C140.432511,50.2628482 140.022111,50.0723739 139.550267,50.0723739 C139.245535,50.0723739 138.998558,50.1482875 138.809329,50.3001171 C138.620099,50.4519467 138.525486,50.6493222 138.525486,50.8922496 C138.525486,51.1075715 138.60044,51.2883841 138.750348,51.4346926 C138.900257,51.5810011 139.208671,51.7756161 139.6756,52.0185434 C140.231,52.3056394 140.609452,52.5402816 140.810969,52.7224771 C141.091126,52.9709255 141.231203,53.2883826 141.231203,53.674858 L141.231203,53.674858 Z M143.540441,55.3560172 L142.065936,55.3560172 C142.233047,55.2566378 142.338719,55.0937685 142.382955,54.8674044 C142.402615,54.768025 142.412445,54.5582273 142.412445,54.2380049 L142.412445,50.7183366 C142.412445,50.3981141 142.402615,50.1883164 142.382955,50.088937 C142.338719,49.8625729 142.233047,49.6997036 142.065936,49.6003243 L143.540441,49.6003243 C143.373329,49.6997036 143.267658,49.8625729 143.223422,50.088937 C143.203762,50.1883164 143.193932,50.3981141 143.193932,50.7183366 L143.193932,54.2380049 C143.193932,54.5582273 143.203762,54.768025 143.223422,54.8674044 C143.267658,55.0937685 143.373329,55.2566378 143.540441,55.3560172 L143.540441,55.3560172 Z M149.602294,49.6003243 C149.435182,49.7217879 149.324595,49.850151 149.27053,49.9854174 C149.216465,50.1206837 149.189432,50.3346222 149.189432,50.6272393 L149.189432,55.6375907 C148.810974,55.4995638 148.454639,55.1931486 148.120416,54.7183361 L145.392583,50.8342786 L145.392583,54.3291022 C145.392583,54.6161981 145.420844,54.8301366 145.477367,54.9709241 C145.53389,55.1117115 145.64079,55.2400746 145.798071,55.3560172 L144.412037,55.3560172 C144.579148,55.2345535 144.689735,55.1061904 144.743801,54.9709241 C144.797866,54.8356577 144.824898,54.6217192 144.824898,54.3291022 L144.824898,50.6272393 C144.824898,50.3401433 144.796637,50.1262048 144.740114,49.9854174 C144.683591,49.8446299 144.576691,49.7162668 144.419409,49.6003243 L145.554778,49.6003243 C145.564608,49.6334507 145.626045,49.7411101 145.739091,49.9233056 L148.621748,54.0475287 L148.621748,50.6272393 C148.621748,50.3401433 148.593487,50.1275851 148.536964,49.9895582 C148.480441,49.8515313 148.371083,49.7217879 148.208887,49.6003243 L149.602294,49.6003243 Z M152.707764,52.7224771 L152.287531,53.3518766 C152.21872,53.4567771 152.108133,53.5092265 151.955767,53.5092265 L151.026829,53.5092265 C150.741757,53.5092265 150.505838,53.545113 150.319067,53.6168869 L150.761418,52.995769 C150.830229,52.8963896 150.943273,52.8467007 151.100554,52.8467007 L151.926277,52.8467007 C152.2605,52.8467007 152.520993,52.8052933 152.707764,52.7224771 L152.707764,52.7224771 Z M160.317847,55.3560172 L158.813852,55.3560172 C159.030114,55.2511167 159.138243,55.030277 159.138243,54.6934914 C159.138243,54.5885909 159.125956,54.4257216 159.101381,54.2048786 L158.688519,50.4616078 L156.941231,55.4719592 C156.75446,55.2952848 156.622984,55.1503587 156.546801,55.0371766 C156.470618,54.9239946 156.388293,54.7487031 156.299822,54.5112968 L154.773709,50.4616078 L154.316613,54.3208206 C154.292038,54.5306215 154.27975,54.6824488 154.27975,54.7763071 C154.27975,54.9971501 154.382965,55.1903849 154.589396,55.3560172 L153.31395,55.3560172 C153.530211,55.124132 153.670288,54.740423 153.734184,54.2048786 L154.183907,50.5278604 C154.213398,50.284933 154.228143,50.1358662 154.228143,50.0806555 C154.228143,49.903981 154.137216,49.7438722 153.955359,49.6003243 L155.319276,49.6003243 C155.319276,49.6776193 155.343851,49.7797577 155.393001,49.9067424 L156.889624,53.8570526 L158.150325,50.2297238 C158.248626,49.9481489 158.297776,49.7383512 158.297776,49.6003243 L159.646948,49.6003243 C159.484751,49.6886615 159.403654,49.8708542 159.403654,50.146908 C159.403654,50.2352453 159.411027,50.3401441 159.425772,50.4616078 L159.904986,54.3208206 C159.944306,54.6300009 159.987312,54.8480801 160.034005,54.9750648 C160.080698,55.1020496 160.175311,55.2290324 160.317847,55.3560172 L160.317847,55.3560172 Z M166.32072,55.3560172 L164.706137,55.3560172 C164.892909,55.2290324 164.986293,55.1130916 164.986293,55.0081911 C164.986293,54.9419382 164.942058,54.7790689 164.853588,54.5195784 L164.396491,53.1862452 L162.428027,53.1862452 L161.985676,54.5195784 C161.926695,54.6962528 161.897206,54.8453196 161.897206,54.9667833 C161.897206,55.1158523 161.99059,55.2455957 162.177361,55.3560172 L160.747092,55.3560172 C160.924033,55.2290324 161.05428,55.0965286 161.137836,54.9585017 C161.221391,54.8204748 161.331978,54.5609881 161.469599,54.1800339 L162.840889,50.3373842 C162.899869,50.1717519 162.929359,50.0392481 162.929359,49.9398687 C162.929359,49.8018418 162.850719,49.6886615 162.693438,49.6003243 L163.932022,49.6003243 L165.568722,54.1800339 C165.691598,54.5278617 165.804643,54.7818274 165.907858,54.9419386 C166.011074,55.1020498 166.148693,55.2400746 166.32072,55.3560172 L166.32072,55.3560172 Z M164.197433,52.6230982 L163.408573,50.3373842 L162.61234,52.6230982 L164.197433,52.6230982 Z M171.682183,52.4160589 C171.682183,52.9902508 171.547021,53.5188859 171.276694,54.0019801 C171.006367,54.4850742 170.645117,54.839798 170.192933,55.0661621 C169.80956,55.2593998 169.123922,55.3560172 168.135999,55.3560172 L166.88267,55.3560172 C167.039951,55.195906 167.133336,55.0661626 167.162826,54.9667833 C167.207061,54.8121931 167.229179,54.555467 167.229179,54.196597 L167.229179,50.7183366 C167.229179,50.3981141 167.219349,50.1883164 167.199688,50.088937 C167.155453,49.8625729 167.049781,49.6997036 166.88267,49.6003243 L167.664157,49.6003243 C167.860759,49.6003243 168.034012,49.5975638 168.18392,49.5920427 C168.333829,49.5865216 168.536571,49.5837611 168.792154,49.5837611 C169.622795,49.5837611 170.296146,49.8239243 170.812225,50.3042579 C171.3922,50.8453234 171.682183,51.54925 171.682183,52.4160589 L171.682183,52.4160589 Z M170.82697,52.5071562 C170.82697,51.833585 170.646345,51.2773449 170.28509,50.8384194 C169.923834,50.3994938 169.404076,50.1800343 168.725801,50.1800343 C168.524284,50.1800343 168.285908,50.2103998 168.010666,50.2711316 L168.010666,54.6438019 C168.192523,54.6824495 168.384206,54.701773 168.585723,54.701773 C169.234508,54.701773 169.728462,54.5609876 170.0676,54.2794128 C170.573849,53.859811 170.82697,53.2690647 170.82697,52.5071562 L170.82697,52.5071562 Z M173.998794,55.3560172 L172.524289,55.3560172 C172.6914,55.2566378 172.797072,55.0937685 172.841307,54.8674044 C172.860968,54.768025 172.870797,54.5582273 172.870797,54.2380049 L172.870797,50.7183366 C172.870797,50.3981141 172.860968,50.1883164 172.841307,50.088937 C172.797072,49.8625729 172.6914,49.6997036 172.524289,49.6003243 L173.998794,49.6003243 C173.831682,49.6997036 173.72601,49.8625729 173.681775,50.088937 C173.662115,50.1883164 173.652285,50.3981141 173.652285,50.7183366 L173.652285,54.2380049 C173.652285,54.5582273 173.662115,54.768025 173.681775,54.8674044 C173.72601,55.0937685 173.831682,55.2566378 173.998794,55.3560172 L173.998794,55.3560172 Z M178.534534,53.674858 C178.534534,54.116544 178.374798,54.511295 178.05532,54.8591228 C177.657202,55.2897668 177.114098,55.5050855 176.425992,55.5050855 C175.959063,55.5050855 175.501972,55.4139891 175.054703,55.2317936 L174.818782,54.1469076 C175.344691,54.610678 175.914828,54.8425597 176.529208,54.8425597 C176.858515,54.8425597 177.134982,54.7569843 177.358616,54.5858309 C177.582251,54.4146776 177.694066,54.2021193 177.694066,53.9481498 C177.694066,53.7052225 177.608054,53.4981853 177.436028,53.3270319 C177.288577,53.1834839 176.955588,52.9792072 176.437051,52.7141955 C175.918514,52.4491839 175.56095,52.2173022 175.364349,52.0185434 C175.094022,51.7424896 174.95886,51.4057091 174.95886,51.0081916 C174.95886,50.5389001 175.13457,50.1634726 175.485995,49.8818977 C175.837421,49.6003228 176.308029,49.4595375 176.897834,49.4595375 C177.286122,49.4595375 177.681777,49.5230289 178.08481,49.6500137 L178.08481,50.6438024 C177.735842,50.2628482 177.325442,50.0723739 176.853599,50.0723739 C176.548866,50.0723739 176.301889,50.1482875 176.11266,50.3001171 C175.923431,50.4519467 175.828818,50.6493222 175.828818,50.8922496 C175.828818,51.1075715 175.903771,51.2883841 176.05368,51.4346926 C176.203589,51.5810011 176.512003,51.7756161 176.978932,52.0185434 C177.534331,52.3056394 177.912784,52.5402816 178.1143,52.7224771 C178.394457,52.9709255 178.534534,53.2883826 178.534534,53.674858 L178.534534,53.674858 Z M184.994503,52.4409036 C184.994503,53.2966704 184.715579,54.0199205 184.157722,54.6106757 C183.599865,55.2014308 182.92037,55.4968039 182.119219,55.4968039 C181.327897,55.4968039 180.657004,55.2069518 180.10652,54.6272388 C179.556035,54.0475258 179.280797,53.3408387 179.280797,52.5071562 C179.280797,51.6403473 179.562179,50.9143367 180.124951,50.3291026 C180.687723,49.7438686 181.386877,49.4512559 182.222434,49.4512559 C183.018671,49.4512559 183.679734,49.7383476 184.205643,50.3125395 C184.451395,50.5775511 184.644308,50.9005292 184.784386,51.2814835 C184.924465,51.6624377 184.994503,52.0489072 184.994503,52.4409036 L184.994503,52.4409036 Z M184.1098,52.5816904 C184.1098,51.902598 183.932861,51.3228937 183.578979,50.8425601 C183.205435,50.3346211 182.716396,50.0806555 182.111846,50.0806555 C181.541702,50.0806555 181.073551,50.2918335 180.707381,50.7141958 C180.34121,51.1365581 180.158128,51.6872771 180.158128,52.3663695 C180.158128,53.0841094 180.367014,53.7024606 180.784792,54.2214417 C181.13376,54.6576067 181.588394,54.875686 182.148709,54.875686 C182.728684,54.875686 183.200521,54.6631277 183.564233,54.2380049 C183.927946,53.812882 184.1098,53.2607827 184.1098,52.5816904 L184.1098,52.5816904 Z M190.975258,49.6003243 C190.808147,49.7217879 190.69756,49.850151 190.643495,49.9854174 C190.589429,50.1206837 190.562397,50.3346222 190.562397,50.6272393 L190.562397,55.6375907 C190.183939,55.4995638 189.827604,55.1931486 189.493381,54.7183361 L186.765547,50.8342786 L186.765547,54.3291022 C186.765547,54.6161981 186.793808,54.8301366 186.850331,54.9709241 C186.906854,55.1117115 187.013755,55.2400746 187.171036,55.3560172 L185.785001,55.3560172 C185.952113,55.2345535 186.0627,55.1061904 186.116765,54.9709241 C186.17083,54.8356577 186.197863,54.6217192 186.197863,54.3291022 L186.197863,50.6272393 C186.197863,50.3401433 186.169602,50.1262048 186.113079,49.9854174 C186.056556,49.8446299 185.949655,49.7162668 185.792374,49.6003243 L186.927743,49.6003243 C186.937573,49.6334507 186.99901,49.7411101 187.112056,49.9233056 L189.994712,54.0475287 L189.994712,50.6272393 C189.994712,50.3401433 189.966451,50.1275851 189.909928,49.9895582 C189.853405,49.8515313 189.744047,49.7217879 189.581851,49.6003243 L190.975258,49.6003243 Z" id="UNIVERSITY-OF-WISCON" fill-opacity="0.579879982" sketch:type="MSShapeGroup"></path>
                <path d="M55.3488155,16.526085 L54.6885238,18.05846 C54.0489928,18.3159336 53.3679441,18.4446684 52.6453571,18.4446684 C51.1420441,18.4446684 49.9356742,18.0314711 49.0262113,17.2050642 C48.1167484,16.3786573 47.6620238,15.2844113 47.6620238,13.9222934 C47.6620238,12.610009 48.1022139,11.5219921 48.9826071,10.65821 C49.8630004,9.79442795 50.9759337,9.36254338 52.3214405,9.36254338 C52.9775826,9.36254338 53.7666025,9.47466726 54.6885238,9.69891838 L54.6885238,11.2063767 C53.8496585,10.7246521 53.0523331,10.4837934 52.2965238,10.4837934 C51.3746025,10.4837934 50.6208809,10.7848668 50.0353363,11.3870225 C49.4497917,11.9891783 49.1570238,12.7595109 49.1570238,13.6980434 C49.1570238,14.7279374 49.4767845,15.600012 50.1163155,16.3142934 C50.7558465,17.0285747 51.5407136,17.38571 52.4709405,17.38571 C53.3098058,17.38571 54.2690879,17.0991712 55.3488155,16.526085 L55.3488155,16.526085 Z M62.8736488,15.1556684 C62.8736488,16.0692841 62.5372772,16.8396166 61.8645238,17.4666892 C61.1917704,18.0937618 60.3612232,18.4072934 59.3728571,18.4072934 C58.4094079,18.4072934 57.6079298,18.10622 56.9683988,17.5040642 C56.3288678,16.9019084 56.0091071,16.1440341 56.0091071,15.2304184 C56.0091071,14.1839131 56.420228,13.3450604 57.2424821,12.713835 C57.8737075,12.2321104 58.6502692,11.9912517 59.5721905,11.9912517 C60.4775006,11.9912517 61.2374513,12.2736378 61.8520655,12.8384184 C62.5331244,13.4696438 62.8736488,14.2420527 62.8736488,15.1556684 L62.8736488,15.1556684 Z M61.5281488,15.3425434 C61.5281488,14.6033452 61.3288175,14.0074276 60.9301488,13.5547725 C60.5314801,13.1021175 60.0082354,12.8757934 59.3603988,12.8757934 C58.7707014,12.8757934 58.288984,13.0792775 57.9152321,13.4862517 C57.5414803,13.893226 57.3546071,14.4206235 57.3546071,15.06846 C57.3546071,15.7744358 57.5560149,16.3599716 57.9588363,16.825085 C58.3616578,17.2901985 58.870368,17.5227517 59.4849821,17.5227517 C60.0912907,17.5227517 60.58339,17.321344 60.9612946,16.9185225 C61.3391993,16.5157011 61.5281488,15.99038 61.5281488,15.3425434 L61.5281488,15.3425434 Z M66.0256071,18.2328767 L63.8453988,18.2328767 C64.0779555,18.0501536 64.2191486,17.894426 64.2689821,17.7656892 C64.3188157,17.6369525 64.3437321,17.3607955 64.3437321,16.93721 L64.3437321,10.8700017 C64.3437321,10.4381107 64.3208921,10.1619537 64.2752113,10.0415225 C64.2295305,9.92109139 64.0862611,9.76536378 63.8453988,9.57433505 L64.7548571,9.57433505 C65.1119978,9.57433505 65.3694675,9.49128032 65.5272738,9.32516838 L65.5272738,16.93721 C65.5272738,17.3607955 65.5521902,17.6369525 65.6020238,17.7656892 C65.6518574,17.894426 65.7930504,18.0501536 66.0256071,18.2328767 L66.0256071,18.2328767 Z M69.1651071,18.2328767 L66.9848988,18.2328767 C67.2174555,18.0501536 67.3586486,17.894426 67.4084821,17.7656892 C67.4583157,17.6369525 67.4832321,17.3607955 67.4832321,16.93721 L67.4832321,10.8700017 C67.4832321,10.4381107 67.4603921,10.1619537 67.4147113,10.0415225 C67.3690305,9.92109139 67.2257611,9.76536378 66.9848988,9.57433505 L67.8943571,9.57433505 C68.2514978,9.57433505 68.5089675,9.49128032 68.6667738,9.32516838 L68.6667738,16.93721 C68.6667738,17.3607955 68.6916902,17.6369525 68.7415238,17.7656892 C68.7913574,17.894426 68.9325504,18.0501536 69.1651071,18.2328767 L69.1651071,18.2328767 Z M76.4033988,16.8375434 L75.6932738,18.095835 C75.15341,18.303475 74.5471105,18.4072934 73.8743571,18.4072934 C72.7780183,18.4072934 71.8831037,18.1082964 71.1895863,17.5102934 C70.496069,16.9122904 70.1493155,16.1398814 70.1493155,15.1930434 C70.1493155,14.2129829 70.5064508,13.3990466 71.2207321,12.75121 C71.7772071,12.2445686 72.5080887,11.9912517 73.4133988,11.9912517 C74.2771809,11.9912517 74.9914515,12.2611796 75.5562321,12.8010434 C76.1210127,13.3409072 76.4033988,14.0261087 76.4033988,14.8566684 L76.4033988,15.06846 L71.5695655,15.06846 C71.6027879,15.832575 71.851952,16.4326454 72.3170655,16.8686892 C72.7821789,17.3047331 73.4092421,17.5227517 74.1982738,17.5227517 C75.0205279,17.5227517 75.7555622,17.2943512 76.4033988,16.8375434 L76.4033988,16.8375434 Z M75.0205238,14.24621 C74.8378007,13.2661496 74.281334,12.7761267 73.3511071,12.7761267 C72.4125747,12.7761267 71.8353443,13.2661496 71.6193988,14.24621 L75.0205238,14.24621 Z M84.5760655,11.9912517 L84.2023155,12.8384184 C84.1441763,12.9463911 84.0195942,13.0003767 83.8285655,13.0003767 C83.5877032,13.0003767 83.1059858,12.9380857 82.3833988,12.8135017 C83.0312354,13.2703096 83.3551488,13.814318 83.3551488,14.4455434 C83.3551488,15.2761031 82.8568205,15.8740971 81.8601488,16.2395434 C81.5279249,16.3558217 81.0918876,16.4430292 80.5520238,16.5011684 C80.2031887,16.5676132 80.0287738,16.679737 80.0287738,16.8375434 C80.0287738,17.0036553 80.2114942,17.08671 80.5769405,17.08671 C81.5819177,17.0950156 82.3127993,17.1656122 82.7696071,17.2985017 C83.3011654,17.4563081 83.7081335,17.7220832 83.9905238,18.095835 C84.1815525,18.345003 84.2770655,18.6647636 84.2770655,19.0551267 C84.2770655,19.8358528 83.8534864,20.4338469 83.0063155,20.8491267 C82.3335621,21.1813506 81.5611532,21.34746 80.6890655,21.34746 C79.6757826,21.34746 78.8223953,21.1647397 78.128878,20.7992934 C77.4353606,20.4338471 77.0886071,19.9853516 77.0886071,19.4537934 C77.0886071,19.1298751 77.1965783,18.8744818 77.4125238,18.6876059 C77.6284693,18.5007299 77.9274663,18.4072934 78.3095238,18.4072934 C78.5337749,18.4072934 78.7704809,18.461279 79.0196488,18.5692517 C78.6292857,18.6440021 78.4341071,18.8474862 78.4341071,19.17971 C78.4341071,19.6199067 78.6355149,19.9666602 79.0383363,20.2199809 C79.4411578,20.4733016 79.9872426,20.59996 80.6766071,20.59996 C81.3742773,20.59996 81.9369731,20.4670725 82.3647113,20.2012934 C82.7924496,19.9355143 83.0063155,19.5866844 83.0063155,19.1547934 C83.0063155,18.3159281 82.1176299,17.8965017 80.3402321,17.8965017 C80.0329251,17.8965017 79.8211355,17.9006544 79.7048571,17.90896 C79.5885788,17.9172656 79.4889131,17.9214184 79.4058571,17.9214184 C79.1566892,17.9214184 78.9490524,17.8466691 78.7829405,17.6971684 C78.5753005,17.5061396 78.4714821,17.2694337 78.4714821,16.9870434 C78.4714821,16.8624594 78.5358496,16.7565646 78.6645863,16.6693559 C78.7933231,16.5821471 79.0777855,16.4513359 79.5179821,16.2769184 C79.1276191,16.1689456 78.8120111,16.0111416 78.5711488,15.8035017 C78.0894242,15.3799163 77.8485655,14.8566715 77.8485655,14.2337517 C77.8485655,13.5942207 78.1081115,13.0605941 78.6272113,12.6328559 C79.1463111,12.2051176 79.7879089,11.9912517 80.5520238,11.9912517 C80.7347469,11.9912517 81.1167987,12.0120154 81.6981905,12.0535434 C82.1633039,12.0867658 82.5827303,12.1033767 82.9564821,12.1033767 C83.454818,12.1033767 83.9946737,12.0660021 84.5760655,11.9912517 L84.5760655,11.9912517 Z M82.0719405,14.3458767 C82.0719405,13.8973745 81.9120601,13.5194755 81.5922946,13.2121684 C81.2725292,12.9048613 80.8800956,12.75121 80.4149821,12.75121 C80.0246191,12.75121 79.7007057,12.869563 79.4432321,13.1062725 C79.1857586,13.3429821 79.0570238,13.6399027 79.0570238,13.9970434 C79.0570238,14.4621568 79.2231333,14.8587431 79.5553571,15.1868142 C79.887581,15.5148853 80.2862437,15.6789184 80.7513571,15.6789184 C81.1417202,15.6789184 81.4594045,15.5564127 81.7044196,15.3113975 C81.9494348,15.0663824 82.0719405,14.7445454 82.0719405,14.3458767 L82.0719405,14.3458767 Z M91.0419405,16.8375434 L90.3318155,18.095835 C89.7919517,18.303475 89.1856522,18.4072934 88.5128988,18.4072934 C87.41656,18.4072934 86.5216453,18.1082964 85.828128,17.5102934 C85.1346106,16.9122904 84.7878571,16.1398814 84.7878571,15.1930434 C84.7878571,14.2129829 85.1449925,13.3990466 85.8592738,12.75121 C86.4157488,12.2445686 87.1466304,11.9912517 88.0519405,11.9912517 C88.9157226,11.9912517 89.6299932,12.2611796 90.1947738,12.8010434 C90.7595544,13.3409072 91.0419405,14.0261087 91.0419405,14.8566684 L91.0419405,15.06846 L86.2081071,15.06846 C86.2413295,15.832575 86.4904937,16.4326454 86.9556071,16.8686892 C87.4207206,17.3047331 88.0477838,17.5227517 88.8368155,17.5227517 C89.6590696,17.5227517 90.3941039,17.2943512 91.0419405,16.8375434 L91.0419405,16.8375434 Z M89.6590655,14.24621 C89.4763423,13.2661496 88.9198757,12.7761267 87.9896488,12.7761267 C87.0511163,12.7761267 86.473886,13.2661496 86.2579405,14.24621 L89.6590655,14.24621 Z M102.154774,15.1556684 C102.154774,16.0692841 101.818402,16.8396166 101.145649,17.4666892 C100.472895,18.0937618 99.6423482,18.4072934 98.6539821,18.4072934 C97.6905329,18.4072934 96.8890548,18.10622 96.2495238,17.5040642 C95.6099928,16.9019084 95.2902321,16.1440341 95.2902321,15.2304184 C95.2902321,14.1839131 95.701353,13.3450604 96.5236071,12.713835 C97.1548325,12.2321104 97.9313942,11.9912517 98.8533155,11.9912517 C99.7586256,11.9912517 100.518576,12.2736378 101.13319,12.8384184 C101.814249,13.4696438 102.154774,14.2420527 102.154774,15.1556684 L102.154774,15.1556684 Z M100.809274,15.3425434 C100.809274,14.6033452 100.609942,14.0074276 100.211274,13.5547725 C99.8126051,13.1021175 99.2893604,12.8757934 98.6415238,12.8757934 C98.0518264,12.8757934 97.570109,13.0792775 97.1963571,13.4862517 C96.8226053,13.893226 96.6357321,14.4206235 96.6357321,15.06846 C96.6357321,15.7744358 96.8371399,16.3599716 97.2399613,16.825085 C97.6427828,17.2901985 98.151493,17.5227517 98.7661071,17.5227517 C99.3724157,17.5227517 99.864515,17.321344 100.24242,16.9185225 C100.620324,16.5157011 100.809274,15.99038 100.809274,15.3425434 L100.809274,15.3425434 Z M107.462024,9.36254338 L106.527649,10.3841267 C106.311703,10.2429316 106.087456,10.172335 105.854899,10.172335 C105.481147,10.172335 105.211219,10.3010699 105.045107,10.5585434 C104.962051,10.6914329 104.920524,10.9489026 104.920524,11.33096 L104.920524,12.1656684 L106.253565,12.1656684 C106.411372,12.1656684 106.565023,12.140752 106.714524,12.0909184 L106.714524,13.2495434 C106.58994,13.1083482 106.357387,13.0377517 106.016857,13.0377517 L104.920524,13.0377517 L104.920524,16.48871 C104.920524,17.1531578 104.982815,17.5975006 105.107399,17.8217517 C105.207066,18.0044748 105.331648,18.1415151 105.481149,18.2328767 L103.238649,18.2328767 C103.471206,18.0584592 103.612399,17.9048079 103.662232,17.7719184 C103.712066,17.6390288 103.736982,17.3607955 103.736982,16.93721 L103.736982,13.0377517 L103.07669,13.0377517 L103.736982,12.1656684 L103.736982,11.5302934 C103.736982,10.85754 103.977841,10.3135316 104.459565,9.89825171 C104.94129,9.48297186 105.643103,9.27533505 106.565024,9.27533505 C106.822497,9.27533505 107.121494,9.3044042 107.462024,9.36254338 L107.462024,9.36254338 Z M62.1403869,40.2328767 L57.8529405,40.2328767 C58.3489033,39.9326887 58.596881,39.6586081 58.596881,39.4106267 C58.596881,39.2540069 58.4794178,38.8689889 58.2444881,38.2555612 L57.0306905,35.1036029 L51.8035298,35.1036029 L50.6288869,38.2555612 C50.4722671,38.6732141 50.3939583,39.0256035 50.3939583,39.3127398 C50.3939583,39.6651344 50.641936,39.9718437 51.1378988,40.2328767 L47.3398869,40.2328767 C47.8097464,39.9326887 48.15561,39.6194537 48.3774881,39.2931624 C48.5993662,38.9668711 48.893024,38.3534526 49.2584702,37.4528886 L52.8998631,28.3689839 C53.0564829,27.9774343 53.1347917,27.6641993 53.1347917,27.4292696 C53.1347917,27.1029783 52.9259684,26.8354234 52.5083155,26.626597 L55.7973155,26.626597 L60.143494,37.4528886 C60.4697854,38.2751427 60.7699689,38.8755097 61.0440536,39.2540077 C61.3181383,39.6325056 61.6835791,39.958792 62.1403869,40.2328767 L62.1403869,40.2328767 Z M56.5021012,33.772341 L54.4073214,28.3689839 L52.2929643,33.772341 L56.5021012,33.772341 Z M73.2407619,30.4246089 L72.6534405,31.7558708 C72.5620789,31.9255422 72.3663071,32.0103767 72.066119,32.0103767 C71.6876211,32.0103767 70.9306366,31.9124908 69.7951429,31.716716 C70.8131718,32.4345569 71.3221786,33.2894273 71.3221786,34.2813529 C71.3221786,35.5865182 70.5390912,36.526223 68.9728929,37.1004958 C68.4508268,37.2832189 67.7656253,37.4202592 66.9172679,37.5116208 C66.3690984,37.616034 66.0950179,37.7922286 66.0950179,38.04021 C66.0950179,38.3012431 66.3821499,38.4317577 66.9564226,38.4317577 C68.5356726,38.4448093 69.6842008,38.5557467 70.4020417,38.7645731 C71.2373474,39.0125545 71.8768688,39.4302012 72.320625,40.0175255 C72.620813,40.4090751 72.7709048,40.9115562 72.7709048,41.5249839 C72.7709048,42.7518392 72.1052805,43.6915441 70.7740119,44.3441267 C69.716828,44.8661928 68.5030426,45.127222 67.132619,45.127222 C65.5403174,45.127222 64.1992803,44.8400899 63.1094673,44.2658172 C62.0196543,43.6915445 61.474756,42.9867658 61.474756,42.15146 C61.474756,41.6424456 61.6444249,41.2411133 61.9837679,40.9474511 C62.3231108,40.6537889 62.7929633,40.50696 63.3933393,40.50696 C63.7457339,40.50696 64.1177004,40.5917945 64.50925,40.761466 C63.8958223,40.8789309 63.5891131,41.1986916 63.5891131,41.7207577 C63.5891131,42.4124953 63.9056109,42.9573936 64.5386161,43.355469 C65.1716212,43.7535444 66.0297545,43.9525791 67.1130417,43.9525791 C68.2093805,43.9525791 69.0936167,43.7437558 69.7657768,43.3261029 C70.4379369,42.90845 70.7740119,42.3602888 70.7740119,41.6816029 C70.7740119,40.363386 69.377506,39.7042874 66.5844524,39.7042874 C66.1015412,39.7042874 65.7687291,39.7108132 65.586006,39.7238648 C65.4032828,39.7369165 65.2466653,39.7434422 65.1161488,39.7434422 C64.7245992,39.7434422 64.3983128,39.6259791 64.1372798,39.3910493 C63.8109884,39.0908613 63.6478452,38.7188948 63.6478452,38.2751386 C63.6478452,38.0793638 63.748994,37.9129578 63.9512946,37.7759154 C64.1535953,37.6388731 64.6006077,37.4333126 65.2923452,37.1592279 C64.6789176,36.9895564 64.1829622,36.7415787 63.8044643,36.4152874 C63.0474684,35.7496531 62.6689762,34.9274114 62.6689762,33.9485374 C62.6689762,32.9435602 63.0768342,32.1050041 63.8925625,31.432844 C64.7082908,30.7606839 65.7165158,30.4246089 66.9172679,30.4246089 C67.2044042,30.4246089 67.8047712,30.4572375 68.7183869,30.5224958 C69.4492794,30.5747024 70.108378,30.6008053 70.6957024,30.6008053 C71.4788015,30.6008053 72.3271462,30.5420737 73.2407619,30.4246089 L73.2407619,30.4246089 Z M69.3057083,34.1247339 C69.3057083,33.4199446 69.0544678,32.8261033 68.5519792,32.3431922 C68.0494905,31.860281 67.4328092,31.6188291 66.7019167,31.6188291 C66.088489,31.6188291 65.5794822,31.8048124 65.174881,32.1767845 C64.7702797,32.5487565 64.5679821,33.0153461 64.5679821,33.5765672 C64.5679821,34.3074597 64.8290113,34.9306668 65.3510774,35.4462071 C65.8731435,35.9617473 66.4996134,36.2195136 67.230506,36.2195136 C67.8439336,36.2195136 68.3431518,36.0270046 68.7281756,35.6419809 C69.1131993,35.2569571 69.3057083,34.7512132 69.3057083,34.1247339 L69.3057083,34.1247339 Z M80.2298869,32.4019243 C79.9949572,32.1800462 79.6686707,32.0691089 79.2510179,32.0691089 C78.4548671,32.0691089 77.8610258,32.3497152 77.4694762,32.9109362 C77.1823398,33.3155375 77.0387738,33.9420074 77.0387738,34.7903648 L77.0387738,38.1968291 C77.0387738,38.8624634 77.0779282,39.2964243 77.1562381,39.4987249 C77.234548,39.7010255 77.4564228,39.9457404 77.821869,40.2328767 L74.3958274,40.2328767 C74.7612737,39.9457404 74.9831484,39.7010255 75.0614583,39.4987249 C75.1397682,39.2964243 75.1789226,38.8624634 75.1789226,38.1968291 L75.1789226,32.7347398 C75.1789226,32.0691055 75.1397682,31.6351446 75.0614583,31.432844 C74.9831484,31.2305434 74.7612737,30.9858285 74.3958274,30.6986922 L75.8249762,30.6986922 C76.3861973,30.6986922 76.7907924,30.5681776 77.0387738,30.3071446 L77.0387738,32.0103767 C77.5999949,30.9531929 78.4222366,30.4246089 79.5055238,30.4246089 C79.6882469,30.4246089 79.9296989,30.4507118 80.2298869,30.5029184 L80.2298869,32.4019243 Z M84.4194464,28.1536327 C84.4194464,28.5190789 84.2954576,28.8257882 84.0474762,29.0737696 C83.7994948,29.321751 83.4927856,29.4457398 83.1273393,29.4457398 C82.7749447,29.4457398 82.4747612,29.321751 82.2267798,29.0737696 C81.9787984,28.8257882 81.8548095,28.5190789 81.8548095,28.1536327 C81.8548095,27.801238 81.9820612,27.5010545 82.2365685,27.2530731 C82.4910757,27.0050917 82.8010478,26.8811029 83.166494,26.8811029 C83.505837,26.8811029 83.7994948,27.0083546 84.0474762,27.2628618 C84.2954576,27.5173691 84.4194464,27.8142897 84.4194464,28.1536327 L84.4194464,28.1536327 Z M84.8893036,40.2328767 L81.4632619,40.2328767 C81.8287082,39.9457404 82.0505829,39.7010255 82.1288929,39.4987249 C82.2072028,39.2964243 82.2463571,38.8624634 82.2463571,38.1968291 L82.2463571,32.7347398 C82.2463571,32.0691055 82.2072028,31.6351446 82.1288929,31.432844 C82.0505829,31.2305434 81.8287082,30.9858285 81.4632619,30.6986922 L82.8924107,30.6986922 C83.4536318,30.6986922 83.8582269,30.5681776 84.1062083,30.3071446 L84.1062083,38.1968291 C84.1062083,38.8624634 84.1453627,39.2964243 84.2236726,39.4987249 C84.3019825,39.7010255 84.5238573,39.9457404 84.8893036,40.2328767 L84.8893036,40.2328767 Z M95.9309464,38.1185196 L94.7171488,40.1349898 C94.0906695,40.3829712 93.2096962,40.50696 92.0742024,40.50696 C90.4296942,40.50696 89.0788684,40.0534219 88.0216845,39.1463321 C86.9645007,38.2392422 86.4359167,37.0743997 86.4359167,35.6517696 C86.4359167,34.1769328 86.9971293,32.923993 88.1195714,31.8929124 C89.1767553,30.9140385 90.5797869,30.4246089 92.3287083,30.4246089 C93.0857042,30.4246089 93.8361629,30.5094433 94.5801071,30.6791148 L94.5801071,32.8130493 C93.9014212,32.1474151 93.0400251,31.8146029 91.9958929,31.8146029 C90.9517607,31.8146029 90.1164674,32.124575 89.4899881,32.7445285 C88.8635088,33.364482 88.5502738,34.1899866 88.5502738,35.2210672 C88.5502738,36.3435093 88.9516061,37.2734256 89.7542827,38.010844 C90.5569594,38.7482623 91.5651844,39.116966 92.7789881,39.116966 C93.836172,39.116966 94.8868142,38.7841539 95.9309464,38.1185196 L95.9309464,38.1185196 Z M106.620196,40.2328767 L104.05556,40.2328767 L104.05556,38.8820374 C103.559597,39.5085167 103.102796,39.935952 102.685143,40.1643559 C102.26749,40.3927598 101.725855,40.50696 101.06022,40.50696 C99.6375901,40.50696 98.606525,40.0240561 97.966994,39.0582339 C97.5754445,38.4709095 97.3796726,37.5964619 97.3796726,36.4348648 L97.3796726,32.7347398 C97.3796726,32.0691055 97.3405182,31.6351446 97.2622083,31.432844 C97.1838984,31.2305434 96.9620237,30.9858285 96.5965774,30.6986922 L98.0061488,30.6986922 C98.5804215,30.6986922 98.9915424,30.5681776 99.2395238,30.3071446 L99.2395238,36.0628946 C99.2395238,37.0156652 99.4091927,37.7008667 99.7485357,38.1185196 C100.166189,38.6405857 100.779607,38.9016148 101.58881,38.9016148 C102.30665,38.9016148 102.884177,38.6764772 103.321408,38.2261952 C103.758638,37.7759132 103.97725,37.178809 103.97725,36.4348648 L103.97725,32.7347398 C103.97725,32.0691055 103.938096,31.6318817 103.859786,31.4230553 C103.781476,31.2142288 103.559601,30.9727769 103.194155,30.6986922 L104.642881,30.6986922 C105.19105,30.6986922 105.58912,30.5681776 105.837101,30.3071446 L105.837101,38.1968291 C105.837101,38.8624634 105.876256,39.2964243 105.954565,39.4987249 C106.032875,39.7010255 106.25475,39.9457404 106.620196,40.2328767 L106.620196,40.2328767 Z M111.553696,40.2328767 L108.127655,40.2328767 C108.493101,39.9457404 108.714976,39.7010255 108.793286,39.4987249 C108.871596,39.2964243 108.91075,38.8624634 108.91075,38.1968291 L108.91075,28.6626446 C108.91075,27.9839586 108.874858,27.5499977 108.803074,27.3607487 C108.73129,27.1714998 108.506153,26.926785 108.127655,26.626597 L109.556804,26.626597 C110.118025,26.626597 110.52262,26.4960824 110.770601,26.2350493 L110.770601,38.1968291 C110.770601,38.8624634 110.809756,39.2964243 110.888065,39.4987249 C110.966375,39.7010255 111.18825,39.9457404 111.553696,40.2328767 L111.553696,40.2328767 Z M118.934369,38.9211922 L117.857613,40.3894958 C117.622683,40.4678057 117.374706,40.50696 117.113673,40.50696 C116.278367,40.50696 115.573588,40.2067765 114.999315,39.6064005 C114.646921,39.2279026 114.41852,38.7645759 114.314107,38.2164065 C114.274952,37.9423218 114.255375,37.4137378 114.255375,36.6306386 L114.255375,32.0691089 L112.845804,32.0691089 L112.845804,31.3251684 C113.550593,31.2077035 114.118331,30.90752 114.549036,30.4246089 C115.05805,29.8633878 115.312554,29.0150431 115.312554,27.8795493 L115.312554,27.6250434 L116.115226,27.6250434 L116.115226,30.6986922 L117.720571,30.6986922 C118.320947,30.6986922 118.725543,30.6595378 118.934369,30.5812279 L118.934369,32.4410791 C118.647233,32.1930977 118.216535,32.0691089 117.642262,32.0691089 L116.115226,32.0691089 L116.115226,36.4544422 C116.115226,37.4463678 116.239215,38.0924149 116.487196,38.3926029 C116.865694,38.8624624 117.394278,39.0973886 118.072964,39.0973886 C118.347049,39.0973886 118.634181,39.0386571 118.934369,38.9211922 L118.934369,38.9211922 Z M129.878125,40.2328767 L127.313488,40.2328767 L127.313488,38.8820374 C126.817525,39.5085167 126.360724,39.935952 125.943071,40.1643559 C125.525419,40.3927598 124.983783,40.50696 124.318149,40.50696 C122.895519,40.50696 121.864454,40.0240561 121.224923,39.0582339 C120.833373,38.4709095 120.637601,37.5964619 120.637601,36.4348648 L120.637601,32.7347398 C120.637601,32.0691055 120.598447,31.6351446 120.520137,31.432844 C120.441827,31.2305434 120.219952,30.9858285 119.854506,30.6986922 L121.264077,30.6986922 C121.83835,30.6986922 122.249471,30.5681776 122.497452,30.3071446 L122.497452,36.0628946 C122.497452,37.0156652 122.667121,37.7008667 123.006464,38.1185196 C123.424117,38.6405857 124.037536,38.9016148 124.846738,38.9016148 C125.564579,38.9016148 126.142106,38.6764772 126.579336,38.2261952 C127.016567,37.7759132 127.235179,37.178809 127.235179,36.4348648 L127.235179,32.7347398 C127.235179,32.0691055 127.196024,31.6318817 127.117714,31.4230553 C127.039404,31.2142288 126.81753,30.9727769 126.452083,30.6986922 L127.90081,30.6986922 C128.448979,30.6986922 128.847048,30.5681776 129.09503,30.3071446 L129.09503,38.1968291 C129.09503,38.8624634 129.134184,39.2964243 129.212494,39.4987249 C129.290804,39.7010255 129.512679,39.9457404 129.878125,40.2328767 L129.878125,40.2328767 Z M137.297952,32.4019243 C137.063023,32.1800462 136.736736,32.0691089 136.319083,32.0691089 C135.522933,32.0691089 134.929091,32.3497152 134.537542,32.9109362 C134.250405,33.3155375 134.106839,33.9420074 134.106839,34.7903648 L134.106839,38.1968291 C134.106839,38.8624634 134.145994,39.2964243 134.224304,39.4987249 C134.302613,39.7010255 134.524488,39.9457404 134.889935,40.2328767 L131.463893,40.2328767 C131.829339,39.9457404 132.051214,39.7010255 132.129524,39.4987249 C132.207834,39.2964243 132.246988,38.8624634 132.246988,38.1968291 L132.246988,32.7347398 C132.246988,32.0691055 132.207834,31.6351446 132.129524,31.432844 C132.051214,31.2305434 131.829339,30.9858285 131.463893,30.6986922 L132.893042,30.6986922 C133.454263,30.6986922 133.858858,30.5681776 134.106839,30.3071446 L134.106839,32.0103767 C134.66806,30.9531929 135.490302,30.4246089 136.573589,30.4246089 C136.756312,30.4246089 136.997764,30.4507118 137.297952,30.5029184 L137.297952,32.4019243 Z M147.576077,39.0190791 L146.675518,40.3699184 C145.761902,40.3046601 145.119118,40.1513055 144.747146,39.9098499 C144.375174,39.6683944 144.14351,39.3518965 144.052149,38.960347 C143.986891,38.7254172 143.954262,38.3142963 143.954262,37.726972 L143.954262,35.0644481 C143.484402,35.2863262 142.603429,35.5473554 141.311315,35.8475434 C140.31939,36.0824731 139.823435,36.6110571 139.823435,37.4333112 C139.823435,37.9553773 140.015944,38.3664982 140.400967,38.6666862 C140.785991,38.9668742 141.324364,39.116966 142.016101,39.116966 C142.459857,39.116966 142.97539,39.0256058 143.562714,38.8428827 L142.348917,40.3894958 C141.98347,40.4678057 141.604978,40.50696 141.213429,40.50696 C140.182348,40.50696 139.366632,40.2394052 138.766256,39.7042874 C138.061467,39.0778081 137.709077,38.3142979 137.709077,37.4137339 C137.709077,36.4609632 138.094095,35.769236 138.864143,35.3385315 C139.386209,35.0513951 140.293285,34.7838403 141.585399,34.5358589 C142.499014,34.3661874 143.115696,34.183467 143.435461,33.9876922 C143.755227,33.7919174 143.915107,33.5047854 143.915107,33.1262874 C143.915107,32.7347378 143.732387,32.41824 143.36694,32.1767845 C143.001494,31.9353289 142.525116,31.8146029 141.937792,31.8146029 C141.206899,31.8146029 140.267194,32.0886835 139.118649,32.6368529 L140.489065,30.5616505 C140.945873,30.470289 141.422251,30.4246089 141.918214,30.4246089 C143.667136,30.4246089 144.828715,30.8879356 145.402988,31.8146029 C145.677073,32.2583591 145.814113,33.0806009 145.814113,34.2813529 L145.814113,36.9438767 C145.814113,37.4920461 145.83369,37.8444355 145.872845,38.0010553 C145.951155,38.3273466 146.153453,38.5883757 146.479744,38.7841505 C146.727725,38.9277187 147.093166,39.0060274 147.576077,39.0190791 L147.576077,39.0190791 Z M151.863524,40.2328767 L148.437482,40.2328767 C148.802928,39.9457404 149.024803,39.7010255 149.103113,39.4987249 C149.181423,39.2964243 149.220577,38.8624634 149.220577,38.1968291 L149.220577,28.6626446 C149.220577,27.9839586 149.184686,27.5499977 149.112902,27.3607487 C149.041118,27.1714998 148.81598,26.926785 148.437482,26.626597 L149.866631,26.626597 C150.427852,26.626597 150.832447,26.4960824 151.080429,26.2350493 L151.080429,38.1968291 C151.080429,38.8624634 151.119583,39.2964243 151.197893,39.4987249 C151.276203,39.7010255 151.498078,39.9457404 151.863524,40.2328767 L151.863524,40.2328767 Z M174.964833,40.2328767 C173.959856,40.2720317 173.18982,40.2916089 172.654702,40.2916089 C171.884655,40.2916089 171.196191,40.1382542 170.589289,39.8315404 C169.982387,39.5248266 169.215614,38.9472996 168.288946,38.0989422 C167.714674,38.9734029 167.097992,39.5933471 166.438884,39.9587934 C165.779775,40.3242397 164.954271,40.50696 163.962345,40.50696 C162.57887,40.50696 161.456445,40.1415193 160.595036,39.4106267 C159.733627,38.6797342 159.302929,37.7204521 159.302929,36.5327517 C159.302929,35.7235493 159.511752,34.9894048 159.929405,34.3302964 C160.347058,33.6711879 161.084465,32.923992 162.141649,32.0886862 C161.515169,31.4361036 161.081209,30.897731 160.839753,30.4735523 C160.598297,30.0493736 160.477571,29.6023612 160.477571,29.1325017 C160.477571,28.3624542 160.794069,27.7066185 161.427074,27.1649749 C162.06008,26.6233313 162.833378,26.3525136 163.746994,26.3525136 C164.608403,26.3525136 165.319708,26.6135428 165.880929,27.1356089 C166.44215,27.657675 166.722756,28.3232993 166.722756,29.1325017 C166.722756,29.6937228 166.60203,30.1798895 166.360574,30.5910166 C166.119119,31.0021436 165.632952,31.5405162 164.90206,32.2061505 C167.407977,34.6729129 169.33633,36.4446481 170.687176,37.5214095 C172.038022,38.5981708 173.463893,39.5019842 174.964833,40.2328767 L174.964833,40.2328767 Z M165.058679,28.9171505 C165.058679,28.5386526 164.921638,28.2286805 164.647554,27.9872249 C164.373469,27.7457694 164.027605,27.6250434 163.609952,27.6250434 C163.218403,27.6250434 162.895379,27.7359808 162.640872,27.9578589 C162.386365,28.1797369 162.259113,28.466869 162.259113,28.8192636 C162.259113,29.3935363 162.748543,30.1178922 163.727417,30.9923529 C164.614929,30.313667 165.058679,29.6219398 165.058679,28.9171505 L165.058679,28.9171505 Z M167.447119,37.3550017 C165.724301,35.8279584 164.366949,34.4967098 163.375024,33.361216 C162.122065,34.2748317 161.495595,35.2928453 161.495595,36.4152874 C161.495595,37.1983866 161.759887,37.837908 162.288479,38.3338708 C162.817071,38.8298336 163.49901,39.0778112 164.334315,39.0778112 C165.561171,39.0778112 166.598762,38.5035471 167.447119,37.3550017 L167.447119,37.3550017 Z M190.078571,37.4920434 L188.982238,40.2328767 L180.544387,40.2328767 C180.988143,39.997947 181.268749,39.612929 181.386214,39.0778112 C181.438421,38.8428815 181.464524,38.3469261 181.464524,37.5899303 L181.464524,29.2695434 C181.464524,28.5125475 181.438421,28.0165922 181.386214,27.7816624 C181.268749,27.2465447 180.988143,26.8615267 180.544387,26.626597 L184.459863,26.626597 C184.016107,26.8615267 183.735501,27.2465447 183.618036,27.7816624 C183.565829,28.0165922 183.539726,28.5125475 183.539726,29.2695434 L183.539726,38.549222 C184.505548,38.6927901 185.432202,38.7645731 186.319714,38.7645731 C187.063658,38.7645731 187.706443,38.6732129 188.248086,38.4904898 C188.78973,38.3077667 189.399885,37.9749545 190.078571,37.4920434 L190.078571,37.4920434 Z M194.111512,28.1536327 C194.111512,28.5190789 193.987523,28.8257882 193.739542,29.0737696 C193.49156,29.321751 193.184851,29.4457398 192.819405,29.4457398 C192.46701,29.4457398 192.166827,29.321751 191.918845,29.0737696 C191.670864,28.8257882 191.546875,28.5190789 191.546875,28.1536327 C191.546875,27.801238 191.674127,27.5010545 191.928634,27.2530731 C192.183141,27.0050917 192.493113,26.8811029 192.85856,26.8811029 C193.197902,26.8811029 193.49156,27.0083546 193.739542,27.2628618 C193.987523,27.5173691 194.111512,27.8142897 194.111512,28.1536327 L194.111512,28.1536327 Z M194.581369,40.2328767 L191.155327,40.2328767 C191.520774,39.9457404 191.742648,39.7010255 191.820958,39.4987249 C191.899268,39.2964243 191.938423,38.8624634 191.938423,38.1968291 L191.938423,32.7347398 C191.938423,32.0691055 191.899268,31.6351446 191.820958,31.432844 C191.742648,31.2305434 191.520774,30.9858285 191.155327,30.6986922 L192.584476,30.6986922 C193.145697,30.6986922 193.550292,30.5681776 193.798274,30.3071446 L193.798274,38.1968291 C193.798274,38.8624634 193.837428,39.2964243 193.915738,39.4987249 C193.994048,39.7010255 194.215923,39.9457404 194.581369,40.2328767 L194.581369,40.2328767 Z M202.901756,26.2937815 L201.433452,27.8991267 C201.094109,27.6772486 200.74172,27.5663112 200.376274,27.5663112 C199.788949,27.5663112 199.364777,27.7686088 199.103744,28.17321 C198.973228,28.3820365 198.90797,28.7866316 198.90797,29.3870077 L198.90797,30.6986922 L201.00275,30.6986922 C201.250731,30.6986922 201.492183,30.6595378 201.727113,30.5812279 L201.727113,32.4019243 C201.531338,32.1800462 201.165898,32.0691089 200.63078,32.0691089 L198.90797,32.0691089 L198.90797,37.4920434 C198.90797,38.5361756 199.005856,39.2344285 199.201631,39.5868231 C199.358251,39.8739595 199.554023,40.0893085 199.788952,40.2328767 L196.265024,40.2328767 C196.63047,39.958792 196.852345,39.7173401 196.930655,39.5085136 C197.008965,39.2996872 197.048119,38.8624634 197.048119,38.1968291 L197.048119,32.0691089 L196.010518,32.0691089 L197.048119,30.6986922 L197.048119,29.7002458 C197.048119,28.6430619 197.426611,27.7881915 198.183607,27.1356089 C198.940603,26.4830262 200.043451,26.1567398 201.492185,26.1567398 C201.896786,26.1567398 202.366638,26.2024199 202.901756,26.2937815 L202.901756,26.2937815 Z M212.259744,38.04021 L211.143833,40.0175255 C210.295476,40.3438168 209.34272,40.50696 208.285536,40.50696 C206.562718,40.50696 205.156423,40.0371076 204.06661,39.0973886 C202.976797,38.1576696 202.431899,36.9438842 202.431899,35.4559958 C202.431899,33.9159008 202.993111,32.636858 204.115554,31.6188291 C204.990014,30.8226783 206.138542,30.4246089 207.561173,30.4246089 C208.918544,30.4246089 210.04097,30.8487812 210.928482,31.6971386 C211.815995,32.545496 212.259744,33.6222412 212.259744,34.9274065 L212.259744,35.260222 L204.66372,35.260222 C204.715927,36.460974 205.107471,37.4039417 205.838363,38.0891535 C206.569256,38.7743653 207.554641,39.116966 208.794548,39.116966 C210.086661,39.116966 211.241715,38.7580509 212.259744,38.04021 L212.259744,38.04021 Z M210.086655,33.9681148 C209.799518,32.4280198 208.925071,31.6579839 207.463286,31.6579839 C205.988449,31.6579839 205.081373,32.4280198 204.74203,33.9681148 L210.086655,33.9681148 Z M228.743899,36.2586684 C228.743899,37.3028006 228.319726,38.2359797 227.471369,39.0582339 C226.414185,40.0762628 224.971999,40.5852696 223.144768,40.5852696 C221.904861,40.5852696 220.691075,40.3699205 219.503375,39.939216 L218.876899,37.3745791 C220.273426,38.4709179 221.787395,39.0190791 223.418851,39.0190791 C224.293312,39.0190791 225.027456,38.8167815 225.621307,38.4121803 C226.215157,38.0075791 226.512077,37.505098 226.512077,36.904722 C226.512077,36.3304492 226.283677,35.8410196 225.826869,35.4364184 C225.435319,35.0970754 224.551083,34.6141715 223.174134,33.9876922 C221.797185,33.3612129 220.847691,32.8130517 220.325625,32.3431922 C219.607784,31.6906096 219.248869,30.8944707 219.248869,29.9547517 C219.248869,28.8453612 219.715459,27.9578622 220.648652,27.2922279 C221.581845,26.6265936 222.831522,26.2937815 224.39772,26.2937815 C225.428801,26.2937815 226.479443,26.4438732 227.549679,26.7440612 L227.549679,29.093347 C226.623011,28.1927829 225.533215,27.7425077 224.280256,27.7425077 C223.471053,27.7425077 222.815218,27.9219652 222.312729,28.2808856 C221.810241,28.6398061 221.559,29.1063957 221.559,29.6806684 C221.559,30.1896828 221.758035,30.617118 222.15611,30.9629868 C222.554186,31.3088556 223.373164,31.7689195 224.613071,32.3431922 C226.087908,33.0218781 227.09287,33.576565 227.627988,34.0072696 C228.371932,34.5945939 228.743899,35.3450527 228.743899,36.2586684 L228.743899,36.2586684 Z M239.785542,38.1185196 L238.571744,40.1349898 C237.945265,40.3829712 237.064291,40.50696 235.928798,40.50696 C234.284289,40.50696 232.933464,40.0534219 231.87628,39.1463321 C230.819096,38.2392422 230.290512,37.0743997 230.290512,35.6517696 C230.290512,34.1769328 230.851725,32.923993 231.974167,31.8929124 C233.031351,30.9140385 234.434382,30.4246089 236.183304,30.4246089 C236.940299,30.4246089 237.690758,30.5094433 238.434702,30.6791148 L238.434702,32.8130493 C237.756016,32.1474151 236.89462,31.8146029 235.850488,31.8146029 C234.806356,31.8146029 233.971063,32.124575 233.344583,32.7445285 C232.718104,33.364482 232.404869,34.1899866 232.404869,35.2210672 C232.404869,36.3435093 232.806201,37.2734256 233.608878,38.010844 C234.411555,38.7482623 235.41978,39.116966 236.633583,39.116966 C237.690767,39.116966 238.741409,38.7841539 239.785542,38.1185196 L239.785542,38.1185196 Z M243.485667,28.1536327 C243.485667,28.5190789 243.361678,28.8257882 243.113696,29.0737696 C242.865715,29.321751 242.559006,29.4457398 242.19356,29.4457398 C241.841165,29.4457398 241.540981,29.321751 241.293,29.0737696 C241.045019,28.8257882 240.92103,28.5190789 240.92103,28.1536327 C240.92103,27.801238 241.048281,27.5010545 241.302789,27.2530731 C241.557296,27.0050917 241.867268,26.8811029 242.232714,26.8811029 C242.572057,26.8811029 242.865715,27.0083546 243.113696,27.2628618 C243.361678,27.5173691 243.485667,27.8142897 243.485667,28.1536327 L243.485667,28.1536327 Z M243.955524,40.2328767 L240.529482,40.2328767 C240.894928,39.9457404 241.116803,39.7010255 241.195113,39.4987249 C241.273423,39.2964243 241.312577,38.8624634 241.312577,38.1968291 L241.312577,32.7347398 C241.312577,32.0691055 241.273423,31.6351446 241.195113,31.432844 C241.116803,31.2305434 240.894928,30.9858285 240.529482,30.6986922 L241.958631,30.6986922 C242.519852,30.6986922 242.924447,30.5681776 243.172429,30.3071446 L243.172429,38.1968291 C243.172429,38.8624634 243.211583,39.2964243 243.289893,39.4987249 C243.368203,39.7010255 243.590078,39.9457404 243.955524,40.2328767 L243.955524,40.2328767 Z M255.329982,38.04021 L254.214071,40.0175255 C253.365714,40.3438168 252.412958,40.50696 251.355774,40.50696 C249.632956,40.50696 248.226661,40.0371076 247.136848,39.0973886 C246.047035,38.1576696 245.502137,36.9438842 245.502137,35.4559958 C245.502137,33.9159008 246.06335,32.636858 247.185792,31.6188291 C248.060252,30.8226783 249.208781,30.4246089 250.631411,30.4246089 C251.988783,30.4246089 253.111208,30.8487812 253.99872,31.6971386 C254.886233,32.545496 255.329982,33.6222412 255.329982,34.9274065 L255.329982,35.260222 L247.733958,35.260222 C247.786165,36.460974 248.177709,37.4039417 248.908601,38.0891535 C249.639494,38.7743653 250.624879,39.116966 251.864786,39.116966 C253.156899,39.116966 254.311953,38.7580509 255.329982,38.04021 L255.329982,38.04021 Z M253.156893,33.9681148 C252.869757,32.4280198 251.995309,31.6579839 250.533524,31.6579839 C249.058687,31.6579839 248.151611,32.4280198 247.812268,33.9681148 L253.156893,33.9681148 Z M266.978524,40.2328767 L263.532905,40.2328767 C263.898351,39.9457404 264.123489,39.6977627 264.208324,39.4889362 C264.29316,39.2801098 264.335577,38.8494117 264.335577,38.1968291 L264.335577,34.9078291 C264.335577,33.9159035 264.185486,33.2241763 263.885298,32.8326267 C263.42849,32.2453023 262.736763,31.9516446 261.810095,31.9516446 C261.392442,31.9516446 260.981321,32.0495305 260.57672,32.2453053 C260.172119,32.4410801 259.884987,32.7151607 259.715315,33.0675553 C259.623954,33.2763817 259.578274,33.5961424 259.578274,34.026847 L259.578274,38.1968291 C259.578274,38.8624634 259.617428,39.2964243 259.695738,39.4987249 C259.774048,39.7010255 259.995923,39.9457404 260.361369,40.2328767 L256.935327,40.2328767 C257.300774,39.9457404 257.522648,39.7010255 257.600958,39.4987249 C257.679268,39.2964243 257.718423,38.8624634 257.718423,38.1968291 L257.718423,32.7347398 C257.718423,32.0691055 257.679268,31.6351446 257.600958,31.432844 C257.522648,31.2305434 257.300774,30.9858285 256.935327,30.6986922 L258.266589,30.6986922 C258.82781,30.6986922 259.232406,30.5681776 259.480387,30.3071446 L259.480387,32.0299541 C260.394003,30.9597186 261.412016,30.4246089 262.534458,30.4246089 C263.252299,30.4246089 263.917924,30.5812263 264.531351,30.894466 C265.223089,31.2468606 265.692941,31.7297645 265.940923,32.3431922 C266.110594,32.7738967 266.195429,33.5569841 266.195429,34.6924779 L266.195429,38.1968291 C266.195429,38.8624634 266.234583,39.2964243 266.312893,39.4987249 C266.391203,39.7010255 266.613078,39.9457404 266.978524,40.2328767 L266.978524,40.2328767 Z M278.000589,38.1185196 L276.786792,40.1349898 C276.160312,40.3829712 275.279339,40.50696 274.143845,40.50696 C272.499337,40.50696 271.148511,40.0534219 270.091327,39.1463321 C269.034144,38.2392422 268.50556,37.0743997 268.50556,35.6517696 C268.50556,34.1769328 269.066772,32.923993 270.189214,31.8929124 C271.246398,30.9140385 272.64943,30.4246089 274.398351,30.4246089 C275.155347,30.4246089 275.905806,30.5094433 276.64975,30.6791148 L276.64975,32.8130493 C275.971064,32.1474151 275.109668,31.8146029 274.065536,31.8146029 C273.021404,31.8146029 272.18611,32.124575 271.559631,32.7445285 C270.933152,33.364482 270.619917,34.1899866 270.619917,35.2210672 C270.619917,36.3435093 271.021249,37.2734256 271.823926,38.010844 C272.626602,38.7482623 273.634827,39.116966 274.848631,39.116966 C275.905815,39.116966 276.956457,38.7841539 278.000589,38.1185196 L278.000589,38.1185196 Z M288.53322,38.04021 L287.41731,40.0175255 C286.568952,40.3438168 285.616196,40.50696 284.559012,40.50696 C282.836194,40.50696 281.429899,40.0371076 280.340086,39.0973886 C279.250273,38.1576696 278.705375,36.9438842 278.705375,35.4559958 C278.705375,33.9159008 279.266588,32.636858 280.38903,31.6188291 C281.26349,30.8226783 282.412019,30.4246089 283.834649,30.4246089 C285.192021,30.4246089 286.314446,30.8487812 287.201958,31.6971386 C288.089471,32.545496 288.53322,33.6222412 288.53322,34.9274065 L288.53322,35.260222 L280.937196,35.260222 C280.989403,36.460974 281.380947,37.4039417 282.111839,38.0891535 C282.842732,38.7743653 283.828117,39.116966 285.068024,39.116966 C286.360137,39.116966 287.515191,38.7580509 288.53322,38.04021 L288.53322,38.04021 Z M286.360131,33.9681148 C286.072995,32.4280198 285.198547,31.6579839 283.736762,31.6579839 C282.261925,31.6579839 281.354849,32.4280198 281.015506,33.9681148 L286.360131,33.9681148 Z M297.94994,37.2962696 C297.94994,38.2751435 297.535557,39.0549681 296.706777,39.6357666 C295.877997,40.2165651 294.771886,40.50696 293.388411,40.50696 C292.43564,40.50696 291.508987,40.3372911 290.608423,39.9979481 L289.903637,37.9619005 C291.287112,38.8102579 292.572681,39.2344303 293.760381,39.2344303 C294.399912,39.2344303 294.931759,39.09739 295.355937,38.8233053 C295.780116,38.5492206 295.992202,38.203357 295.992202,37.7857041 C295.992202,37.3811029 295.835585,37.0678679 295.522345,36.8459898 C295.274364,36.6632667 294.615265,36.3826604 293.54503,36.0041624 C292.357329,35.5865095 291.544876,35.1786515 291.107646,34.7805761 C290.670415,34.3825007 290.451804,33.8571796 290.451804,33.204597 C290.451804,32.3301362 290.810719,31.6481976 291.52856,31.1587606 C292.2464,30.6693237 293.238311,30.4246089 294.504321,30.4246089 C295.391834,30.4246089 296.16187,30.5159691 296.814452,30.6986922 L296.814452,32.4606565 C295.92694,31.9255387 295.078595,31.6579839 294.269393,31.6579839 C293.708172,31.6579839 293.251371,31.7656584 292.898976,31.9810106 C292.546582,32.1963629 292.370387,32.4737064 292.370387,32.8130493 C292.370387,33.1001857 292.530267,33.3514262 292.850033,33.5667785 C293.169798,33.7821308 293.740799,34.0203199 294.563054,34.2813529 C295.829064,34.6859541 296.69046,35.0905493 297.147268,35.4951505 C297.682386,35.9780617 297.94994,36.5784287 297.94994,37.2962696 L297.94994,37.2962696 Z" id="College-of-" sketch:type="MSShapeGroup"></path>
            </g>
        </g>
    </g>
</svg>